<svg width="16" height="4" viewBox="0 0 16 4" fill="none" xmlns="http://www.w3.org/2000/svg">
<path d="M9.5 2C9.5 2.29667 9.41203 2.58668 9.24721 2.83335C9.08238 3.08003 8.84811 3.27229 8.57403 3.38582C8.29994 3.49935 7.99834 3.52906 7.70737 3.47118C7.41639 3.4133 7.14912 3.27044 6.93934 3.06066C6.72956 2.85088 6.5867 2.58361 6.52882 2.29264C6.47094 2.00166 6.50065 1.70006 6.61418 1.42597C6.72771 1.15189 6.91997 0.917617 7.16665 0.752795C7.41332 0.587973 7.70333 0.5 8 0.5C8.39783 0.5 8.77936 0.658035 9.06066 0.93934C9.34197 1.22064 9.5 1.60218 9.5 2ZM2 0.5C1.70333 0.5 1.41332 0.587973 1.16665 0.752795C0.919972 0.917617 0.727713 1.15189 0.614181 1.42597C0.50065 1.70006 0.470945 2.00166 0.528823 2.29264C0.586701 2.58361 0.729562 2.85088 0.93934 3.06066C1.14912 3.27044 1.41639 3.4133 1.70737 3.47118C1.99834 3.52906 2.29994 3.49935 2.57403 3.38582C2.84811 3.27229 3.08238 3.08003 3.24721 2.83335C3.41203 2.58668 3.5 2.29667 3.5 2C3.5 1.60218 3.34197 1.22064 3.06066 0.93934C2.77936 0.658035 2.39783 0.5 2 0.5ZM14 0.5C13.7033 0.5 13.4133 0.587973 13.1666 0.752795C12.92 0.917617 12.7277 1.15189 12.6142 1.42597C12.5007 1.70006 12.4709 2.00166 12.5288 2.29264C12.5867 2.58361 12.7296 2.85088 12.9393 3.06066C13.1491 3.27044 13.4164 3.4133 13.7074 3.47118C13.9983 3.52906 14.2999 3.49935 14.574 3.38582C14.8481 3.27229 15.0824 3.08003 15.2472 2.83335C15.412 2.58668 15.5 2.29667 15.5 2C15.5 1.60218 15.342 1.22064 15.0607 0.93934C14.7794 0.658035 14.3978 0.5 14 0.5Z" fill="#26262E"/>
</svg>
