<svg width="13" height="13" viewBox="0 0 13 13" fill="none" xmlns="http://www.w3.org/2000/svg">
<path d="M4 12H1C0.867392 12 0.740215 11.9474 0.646447 11.8536C0.552679 11.7598 0.5 11.6327 0.5 11.5V8.70715C0.5 8.64149 0.512933 8.57648 0.53806 8.51581C0.563188 8.45515 0.600018 8.40003 0.646447 8.3536L8.14645 0.8536C8.24022 0.759832 8.36739 0.707153 8.5 0.707153C8.63261 0.707153 8.75978 0.759832 8.85355 0.8536L11.6464 3.64649C11.7402 3.74026 11.7929 3.86744 11.7929 4.00005C11.7929 4.13266 11.7402 4.25983 11.6464 4.3536L4 12Z" stroke="#000229" stroke-linecap="round" stroke-linejoin="round"/>
</svg>
