<svg width="32" height="33" viewBox="0 0 32 33" fill="none" xmlns="http://www.w3.org/2000/svg">
<path d="M7.02538 13.5C7.02373 12.314 7.25682 11.1394 7.71123 10.0439C8.16565 8.94846 8.83239 7.95374 9.67303 7.11714C10.5137 6.28054 11.5116 5.6186 12.6092 5.16946C13.7069 4.72033 14.8826 4.49289 16.0686 4.50025C21.0173 4.53704 24.9756 8.65042 24.9756 13.613V14.5C24.9756 18.977 25.9123 21.5749 26.7372 22.9948C26.8261 23.1465 26.8734 23.319 26.8743 23.4948C26.8753 23.6706 26.8298 23.8436 26.7426 23.9962C26.6554 24.1489 26.5294 24.2759 26.3774 24.3643C26.2255 24.4527 26.0529 24.4995 25.877 24.5H6.12296C5.94711 24.4995 5.77449 24.4527 5.62251 24.3643C5.47053 24.2758 5.34458 24.1488 5.25734 23.9961C5.17011 23.8434 5.12469 23.6704 5.12566 23.4946C5.12663 23.3187 5.17396 23.1463 5.26288 22.9946C6.08829 21.5746 7.02538 18.9767 7.02538 14.5L7.02538 13.5Z" stroke="#000229" stroke-linecap="round" stroke-linejoin="round"/>
<path d="M12 24.5V25.5C12 26.5609 12.4214 27.5783 13.1716 28.3284C13.9217 29.0786 14.9391 29.5 16 29.5C17.0609 29.5 18.0783 29.0786 18.8284 28.3284C19.5786 27.5783 20 26.5609 20 25.5V24.5" stroke="#000229" stroke-linecap="round" stroke-linejoin="round"/>
</svg>
