<svg width="58" height="47" viewBox="0 0 58 47" fill="none" xmlns="http://www.w3.org/2000/svg">
<path d="M5.22168 -8.604L5.58524 21.3898L21.2949 29.0421L20.9314 -0.951618L5.22168 -8.604Z" fill="#F2F2F2"/>
<path d="M0.447636 -11L-11.291 13.0987L4.63668 20.8573L4.27312 -9.13656L0.447636 -11Z" fill="#F2F2F2"/>
<path d="M71.0465 22.8545L39.3418 7.41089L39.7054 37.4046L59.3078 46.9531L71.0465 22.8545Z" fill="#F2F2F2"/>
<path d="M22.3516 -0.95166L22.7151 29.0421L38.4249 36.6945L38.0614 6.70073L22.3516 -0.95166Z" fill="#F2F2F2"/>
<path d="M27.812 22.9904L27.3682 32.9315C27.3682 32.9315 28.522 42.3402 28.2558 42.6064C27.9895 42.8727 27.2794 43.4053 27.812 44.0266C28.3445 44.6479 30.2972 45.0917 30.386 44.7367C30.4748 44.3816 30.6523 34.2629 30.6523 34.2629L31.2736 22.2803L27.812 22.9904Z" fill="#2F2E41"/>
<path opacity="0.2" d="M27.812 22.9904L27.3682 32.9315C27.3682 32.9315 28.522 42.3402 28.2558 42.6064C27.9895 42.8727 27.2794 43.4053 27.812 44.0266C28.3445 44.6479 30.2972 45.0917 30.386 44.7367C30.4748 44.3816 30.6523 34.2629 30.6523 34.2629L31.2736 22.2803L27.812 22.9904Z" fill="black"/>
<path d="M28.2556 43.8489C28.2556 43.8489 26.0366 45.5354 25.7703 45.5354C25.504 45.5354 23.1075 46.3342 24.794 46.6893C26.4804 47.0443 30.5633 46.8668 30.6521 46.3342C30.7409 45.8016 30.3858 44.1854 30.3858 44.1854L28.2556 43.8489Z" fill="#2F2E41"/>
<path opacity="0.2" d="M28.2556 43.8489C28.2556 43.8489 26.0366 45.5354 25.7703 45.5354C25.504 45.5354 23.1075 46.3342 24.794 46.6893C26.4804 47.0443 30.5633 46.8668 30.6521 46.3342C30.7409 45.8016 30.3858 44.1854 30.3858 44.1854L28.2556 43.8489Z" fill="black"/>
<path d="M22.7523 15.5344C22.7523 15.5344 21.7759 15.8895 21.7759 16.1557C21.7759 16.422 20.8883 19.7949 20.7108 19.9724C20.5333 20.15 20.4445 20.9488 20.4445 20.9488C20.4445 20.9488 19.5569 22.9903 19.7344 22.9903C19.9119 22.9903 21.4209 22.6352 21.5096 22.9903C21.5984 23.3453 22.3085 20.7713 22.3085 20.7713L23.8174 17.7534L22.7523 15.5344Z" fill="#CD3753"/>
<path d="M19.7344 23.3453C19.7344 23.3453 20.0007 25.298 20.7108 25.4755C21.4208 25.653 20.7108 22.9902 20.7108 22.9902L19.7344 23.3453Z" fill="#FFB8B8"/>
<path d="M22.042 14.4694C22.042 14.4694 22.5746 15.6233 22.8408 16.2446C23.1071 16.8659 25.5924 14.6469 25.5924 14.6469C25.5924 14.6469 24.261 13.6706 24.261 13.2268C24.261 12.7829 22.042 14.4694 22.042 14.4694Z" fill="#FFB8B8"/>
<path d="M17.6046 46.9557C16.007 46.9557 14.4454 46.482 13.1171 45.5944C11.7888 44.7069 10.7535 43.4454 10.1422 41.9695C9.53084 40.4936 9.37089 38.8695 9.68255 37.3027C9.99421 35.7359 10.7635 34.2966 11.8931 33.167C13.0227 32.0374 14.4619 31.2681 16.0288 30.9565C17.5956 30.6448 19.2197 30.8048 20.6956 31.4161C22.1715 32.0275 23.433 33.0627 24.3205 34.391C25.2081 35.7193 25.6818 37.281 25.6818 38.8785C25.6794 41.0199 24.8276 43.073 23.3133 44.5872C21.7991 46.1015 19.746 46.9533 17.6046 46.9557ZM17.6046 30.9788C16.0422 30.9788 14.5148 31.4421 13.2157 32.3101C11.9166 33.1782 10.9041 34.4119 10.3062 35.8554C9.70829 37.2989 9.55185 38.8872 9.85666 40.4196C10.1615 41.952 10.9138 43.3596 12.0186 44.4644C13.1234 45.5692 14.531 46.3216 16.0634 46.6264C17.5958 46.9312 19.1842 46.7747 20.6276 46.1768C22.0711 45.5789 23.3049 44.5664 24.1729 43.2673C25.0409 41.9682 25.5043 40.4409 25.5043 38.8785C25.5019 36.7841 24.6688 34.7761 23.1879 33.2952C21.7069 31.8142 19.699 30.9812 17.6046 30.9788Z" fill="#2F2E41"/>
<path d="M42.4571 46.9557C40.8596 46.9557 39.2979 46.482 37.9696 45.5944C36.6414 44.7069 35.6061 43.4454 34.9947 41.9695C34.3834 40.4936 34.2234 38.8695 34.5351 37.3027C34.8467 35.7359 35.616 34.2966 36.7457 33.167C37.8753 32.0374 39.3145 31.2681 40.8813 30.9565C42.4481 30.6448 44.0722 30.8048 45.5481 31.4161C47.024 32.0275 48.2855 33.0627 49.1731 34.391C50.0606 35.7193 50.5343 37.281 50.5343 38.8785C50.5319 41.0199 49.6801 43.073 48.1659 44.5872C46.6516 46.1015 44.5986 46.9533 42.4571 46.9557ZM42.4571 30.9788C40.8947 30.9788 39.3674 31.4421 38.0683 32.3101C36.7692 33.1782 35.7566 34.4119 35.1587 35.8554C34.5608 37.2989 34.4044 38.8872 34.7092 40.4196C35.014 41.952 35.7664 43.3596 36.8712 44.4644C37.976 45.5692 39.3836 46.3216 40.9159 46.6264C42.4483 46.9312 44.0367 46.7747 45.4802 46.1768C46.9237 45.5789 48.1574 44.5664 49.0255 43.2673C49.8935 41.9682 50.3568 40.4409 50.3568 38.8785C50.3544 36.7841 49.5214 34.7761 48.0404 33.2952C46.5595 31.8142 44.5515 30.9811 42.4571 30.9788Z" fill="#2F2E41"/>
<path d="M17.6048 39.4111C17.899 39.4111 18.1374 39.1726 18.1374 38.8785C18.1374 38.5844 17.899 38.3459 17.6048 38.3459C17.3107 38.3459 17.0723 38.5844 17.0723 38.8785C17.0723 39.1726 17.3107 39.4111 17.6048 39.4111Z" fill="#2F2E41"/>
<path d="M42.6351 39.4111C42.9292 39.4111 43.1677 39.1726 43.1677 38.8785C43.1677 38.5844 42.9292 38.3459 42.6351 38.3459C42.341 38.3459 42.1025 38.5844 42.1025 38.8785C42.1025 39.1726 42.341 39.4111 42.6351 39.4111Z" fill="#2F2E41"/>
<path d="M18.3957 38.1145L18.2324 38.0448L22.8715 27.1609L36.0267 27.4293L36.0522 27.4692L42.5317 37.5879L42.3822 37.6837L35.9282 27.605L22.9878 27.3408L18.3957 38.1145Z" fill="#2F2E41"/>
<path d="M32.2168 40.1374L35.6264 28.1143L35.7971 28.1626L32.4609 39.9273L41.3812 38.7904L41.4036 38.9665L32.2168 40.1374Z" fill="#2F2E41"/>
<path d="M22.5496 29.8515L22.4229 29.9758L31.5652 39.2957L31.6919 39.1714L22.5496 29.8515Z" fill="#2F2E41"/>
<path d="M36.5132 25.2746L35.9814 27.2275L36.1527 27.2742L36.6844 25.3212L36.5132 25.2746Z" fill="#2F2E41"/>
<path d="M23.1936 26.649L23.0204 26.6097L23.4396 24.7655H21.9531V23.6116H22.1306V24.5879H23.662L23.1936 26.649Z" fill="#2F2E41"/>
<path d="M33.3145 23.523C33.3145 23.523 33.3145 22.9904 34.4684 23.2567C35.6222 23.523 39.1727 24.2331 39.439 24.1443C39.7053 24.0555 39.6165 24.6769 38.4626 24.9431C37.3087 25.2094 35.9773 24.5881 35.711 24.4106C35.4447 24.2331 33.3145 23.523 33.3145 23.523Z" fill="#2F2E41"/>
<path d="M30.1193 39.4109H27.8115V40.2985H30.1193V39.4109Z" fill="#CD3753"/>
<path d="M32.3387 41.8075C31.9876 41.8075 31.6444 41.7034 31.3524 41.5083C31.0605 41.3132 30.833 41.036 30.6986 40.7116C30.5642 40.3872 30.5291 40.0303 30.5976 39.686C30.6661 39.3416 30.8352 39.0253 31.0834 38.777C31.3317 38.5288 31.648 38.3597 31.9924 38.2912C32.3367 38.2227 32.6937 38.2578 33.0181 38.3922C33.3424 38.5266 33.6197 38.7541 33.8148 39.046C34.0098 39.338 34.1139 39.6812 34.1139 40.0323C34.1134 40.5029 33.9262 40.9541 33.5934 41.2869C33.2606 41.6197 32.8094 41.8069 32.3387 41.8075ZM32.3387 38.4346C32.0227 38.4346 31.7138 38.5283 31.4511 38.7039C31.1883 38.8794 30.9835 39.1289 30.8626 39.4209C30.7417 39.7128 30.7101 40.034 30.7717 40.344C30.8333 40.6539 30.9855 40.9386 31.209 41.162C31.4324 41.3854 31.7171 41.5376 32.027 41.5993C32.3369 41.6609 32.6582 41.6293 32.9501 41.5083C33.2421 41.3874 33.4916 41.1826 33.6672 40.9199C33.8427 40.6572 33.9364 40.3483 33.9364 40.0323C33.9359 39.6087 33.7674 39.2026 33.4679 38.9031C33.1684 38.6036 32.7623 38.4351 32.3387 38.4346Z" fill="#2F2E41"/>
<path d="M22.8412 15.357C24.0177 15.357 24.9714 14.4032 24.9714 13.2267C24.9714 12.0502 24.0177 11.0964 22.8412 11.0964C21.6647 11.0964 20.7109 12.0502 20.7109 13.2267C20.7109 14.4032 21.6647 15.357 22.8412 15.357Z" fill="#FFB8B8"/>
<path d="M29.5865 23.1677C29.5865 23.1677 23.462 26.7181 23.5508 27.872C23.6395 29.0259 28.2551 35.3279 28.2551 35.3279C28.2551 35.3279 28.6101 37.1918 28.9651 37.1918C29.3202 37.1918 31.5392 37.9907 31.6279 37.4581C31.7167 36.9256 30.9179 36.3042 31.0066 35.9492C31.0954 35.5942 27.1012 29.1147 27.1012 29.1147C27.1012 29.1147 35.6494 25.9193 33.8606 23.1677C32.0717 20.4162 29.5865 23.1677 29.5865 23.1677Z" fill="#2F2E41"/>
<path d="M29.7641 36.8369C29.7641 36.8369 28.699 37.1032 28.5215 37.4582C28.344 37.8133 25.2374 38.9672 26.125 39.2334C27.0126 39.4997 32.1607 39.5885 32.3382 39.411C32.5157 39.2334 32.3382 37.1731 31.6281 37.1825C30.918 37.192 30.1192 37.4582 29.7641 36.8369Z" fill="#2F2E41"/>
<path d="M22.8408 16.5109L24.8379 14.07C24.8379 14.07 27.1013 13.4043 28.0777 14.7357C29.054 16.0671 31.7168 19.3512 32.6044 20.0613C33.4921 20.7714 34.7347 23.523 34.2909 23.6117C33.8471 23.7005 31.3618 22.6354 30.3854 23.3454C29.4091 24.0555 27.5451 24.1443 27.4564 23.7892C27.3676 23.4342 22.042 17.4873 22.042 16.6884C22.042 15.8896 22.6095 15.7182 22.6095 15.7182L22.8408 16.5109Z" fill="#CD3753"/>
<path d="M23.9143 23.5677L21.2364 22.621C21.0978 22.572 20.9456 22.6446 20.8966 22.7833C20.8476 22.9219 20.9202 23.0741 21.0589 23.1231L23.7368 24.0698C23.8755 24.1189 24.0276 24.0462 24.0766 23.9075C24.1256 23.7689 24.053 23.6168 23.9143 23.5677Z" fill="#2F2E41"/>
<path d="M17.8702 22.4578C17.8702 22.4578 14.7636 23.3454 15.0299 24.3217C15.2961 25.2981 18.1365 23.1678 18.1365 23.1678L17.8702 22.4578Z" fill="#FFB8B8"/>
<path d="M25.9475 14.7355C25.9475 14.7355 24.7048 15.8006 24.4386 17.0432C24.1723 18.2859 22.8409 20.5049 22.8409 20.5049L17.4265 22.2801C17.4265 22.2801 17.0714 23.9665 17.604 23.9665C18.1366 23.9665 24.0835 22.7239 24.261 22.4576C24.4386 22.1913 28.2553 17.132 28.2553 17.132C28.2553 17.132 28.6103 14.3804 25.9475 14.7355Z" fill="#CD3753"/>
<path d="M21.5185 10.761C21.466 10.8062 21.4032 10.8377 21.3356 10.8528C21.3016 10.8588 21.2667 10.8512 21.2383 10.8316C21.21 10.8119 21.1906 10.7819 21.1843 10.748C21.1452 10.8566 21.0725 10.9498 20.9767 11.0142C20.8751 11.0672 20.7179 11.0228 20.7032 10.9091C20.6884 10.9954 20.6502 11.076 20.5928 11.1422C20.5629 11.1738 20.5217 11.1924 20.4782 11.1938C20.4347 11.1953 20.3923 11.1795 20.3604 11.15C20.4049 11.3932 20.3774 11.6434 20.3914 11.8903C20.4053 12.1372 20.4712 12.3989 20.6577 12.5612C20.9298 12.798 21.3388 12.7396 21.6967 12.6947C21.7508 12.6834 21.8069 12.6864 21.8595 12.7036C21.9935 12.7607 21.9874 12.9472 21.9892 13.0929C22.0001 13.3484 22.1013 13.5918 22.2746 13.7798C22.448 13.9678 22.6824 14.0883 22.9362 14.1199C23.0782 14.1418 23.2232 14.1064 23.3391 14.0215C23.4407 13.9354 23.4926 13.7951 23.609 13.7304C23.7984 13.6251 24.0281 13.7786 24.1666 13.9452C24.305 14.1119 24.4415 14.3169 24.656 14.3474C24.9397 14.3877 25.1557 14.0986 25.2617 13.8324C25.408 13.4593 25.478 13.0607 25.4678 12.6601C25.4575 12.2594 25.3672 11.8649 25.2021 11.4998C24.6097 10.2086 22.5863 10.0043 21.5185 10.761Z" fill="#2F2E41"/>
<path d="M59.0011 46.952L58.8433 46.8706C60.8921 42.9097 59.7966 37.7659 58.5168 34.1483C57.6478 31.7168 56.5395 29.3776 55.208 27.1651L55.3581 27.0703C56.6964 29.294 57.8106 31.6451 58.6841 34.0891C59.9756 37.7398 61.0789 42.9348 59.0011 46.952Z" fill="#2F2E41"/>
<path d="M52.8624 32.4716L52.7324 32.5925L58.6793 38.9833L58.8093 38.8623L52.8624 32.4716Z" fill="#2F2E41"/>
<path d="M51.3778 32.2657C51.868 32.2657 52.2654 31.8683 52.2654 31.3781C52.2654 30.8879 51.868 30.4905 51.3778 30.4905C50.8876 30.4905 50.4902 30.8879 50.4902 31.3781C50.4902 31.8683 50.8876 32.2657 51.3778 32.2657Z" fill="#3F3D56"/>
<path d="M55.2831 33.1533C55.7733 33.1533 56.1707 32.756 56.1707 32.2658C56.1707 31.7756 55.7733 31.3782 55.2831 31.3782C54.7929 31.3782 54.3955 31.7756 54.3955 32.2658C54.3955 32.756 54.7929 33.1533 55.2831 33.1533Z" fill="#3F3D56"/>
<path d="M53.5077 36.6151C53.9979 36.6151 54.3953 36.2177 54.3953 35.7274C54.3953 35.2372 53.9979 34.8398 53.5077 34.8398C53.0175 34.8398 52.6201 35.2372 52.6201 35.7274C52.6201 36.2177 53.0175 36.6151 53.5077 36.6151Z" fill="#CD3753"/>
<path d="M54.3954 26.4964C54.8856 26.4964 55.283 26.099 55.283 25.6088C55.283 25.1186 54.8856 24.7212 54.3954 24.7212C53.9052 24.7212 53.5078 25.1186 53.5078 25.6088C53.5078 26.099 53.9052 26.4964 54.3954 26.4964Z" fill="#3F3D56"/>
<path d="M67.9758 46.8225H-12.1748V47H67.9758V46.8225Z" fill="#2F2E41"/>
<path d="M1.57709 28.4425L-5.95605 24.0933L-10.3053 31.6264L-2.77217 35.9756L1.57709 28.4425Z" fill="#F2F2F2"/>
</svg>
