<svg width="32" height="32" viewBox="0 0 32 32" fill="none" xmlns="http://www.w3.org/2000/svg">
<circle cx="16" cy="16" r="16" fill="#8676E8"/>
<path d="M13.7929 21.5H11C10.8674 21.5 10.7402 21.4474 10.6464 21.3536C10.5527 21.2598 10.5 21.1327 10.5 21V18.2072C10.5 18.1415 10.5129 18.0765 10.5381 18.0158C10.5632 17.9551 10.6 17.9 10.6464 17.8536L18.1464 10.3536C18.2402 10.2598 18.3674 10.2072 18.5 10.2072C18.6326 10.2072 18.7598 10.2598 18.8536 10.3536L21.6464 13.1465C21.7402 13.2403 21.7929 13.3674 21.7929 13.5C21.7929 13.6327 21.7402 13.7598 21.6464 13.8536L14.1464 21.3536C14.1 21.4 14.0449 21.4369 13.9842 21.462C13.9236 21.4871 13.8586 21.5 13.7929 21.5Z" stroke="white" stroke-linecap="round" stroke-linejoin="round"/>
<path d="M16.5 12L20 15.5" stroke="white" stroke-linecap="round" stroke-linejoin="round"/>
<path d="M13.968 21.4681L10.5317 18.0319" stroke="white" stroke-linecap="round" stroke-linejoin="round"/>
</svg>
