<svg width="20" height="20" viewBox="0 0 20 20" fill="none" xmlns="http://www.w3.org/2000/svg">
<path d="M11.249 17.4985V3.12353C11.249 2.95777 11.1832 2.7988 11.066 2.68159C10.9488 2.56438 10.7898 2.49854 10.624 2.49854H3.12402C2.95826 2.49854 2.79929 2.56438 2.68208 2.68159C2.56487 2.7988 2.49902 2.95777 2.49902 3.12353V17.4985" stroke="#000229" stroke-linecap="round" stroke-linejoin="round"/>
<path d="M17.499 17.4985V8.12354C17.499 7.95777 17.4332 7.7988 17.316 7.68159C17.1988 7.56438 17.0398 7.49854 16.874 7.49854H11.249" stroke="#000229" stroke-linecap="round" stroke-linejoin="round"/>
<path d="M4.99902 5.62354H7.49902" stroke="#000229" stroke-linecap="round" stroke-linejoin="round"/>
<path d="M6.24902 11.8735H8.74902" stroke="#000229" stroke-linecap="round" stroke-linejoin="round"/>
<path d="M4.99902 14.9985H7.49902" stroke="#000229" stroke-linecap="round" stroke-linejoin="round"/>
<path d="M13.749 13.7485H14.999" stroke="#000229" stroke-linecap="round" stroke-linejoin="round"/>
<path d="M13.749 10.6235H14.999" stroke="#000229" stroke-linecap="round" stroke-linejoin="round"/>
</svg>
