<svg width="16" height="18" viewBox="0 0 16 18" fill="none" xmlns="http://www.w3.org/2000/svg">
<path d="M14.1043 6.89062C14.1043 6.89062 13.6518 12.5031 13.3893 14.8673C13.2643 15.9965 12.5668 16.6581 11.4243 16.679C9.25011 16.7181 7.07344 16.7206 4.90011 16.6748C3.80094 16.6523 3.11511 15.9823 2.99261 14.8731C2.72844 12.4881 2.27844 6.89062 2.27844 6.89062" stroke="#000229" stroke-linecap="round" stroke-linejoin="round"/>
<path d="M15.2568 4.20011H1.12518" stroke="#000229" stroke-linecap="round" stroke-linejoin="round"/>
<path d="M12.5338 4.19998C11.8796 4.19998 11.3163 3.73748 11.188 3.09665L10.9855 2.08331C10.8605 1.61581 10.4371 1.29248 9.95463 1.29248H6.42713C5.94463 1.29248 5.52129 1.61581 5.39629 2.08331L5.19379 3.09665C5.06546 3.73748 4.50213 4.19998 3.84796 4.19998" stroke="#000229" stroke-linecap="round" stroke-linejoin="round"/>
</svg>
