<svg width="24" height="24" viewBox="0 0 24 24" fill="none" xmlns="http://www.w3.org/2000/svg">
<path fill-rule="evenodd" clip-rule="evenodd" d="M4.38044 0.536195C6.94263 0.178732 9.48249 0 12 0C14.5189 0 17.0602 0.178935 19.6239 0.536804C21.6155 0.814812 23.1809 2.38041 23.4587 4.37203C23.8196 6.9598 24 9.50245 24 12C24 14.499 23.8193 17.0431 23.458 19.6324C23.1802 21.6236 21.6153 23.1888 19.6242 23.4672C17.0828 23.8224 14.5414 24 12 24C9.46007 24 6.92014 23.8226 4.38021 23.4678C2.38858 23.1895 0.823298 21.6237 0.545839 19.6319C0.181946 17.0197 0 14.4757 0 12C0 9.52564 0.181742 6.98314 0.545225 4.37248C0.822597 2.3803 2.38834 0.814122 4.38044 0.536195Z" fill="#475993"/>
<mask id="mask0_4_12480" style="mask-type:alpha" maskUnits="userSpaceOnUse" x="0" y="0" width="24" height="24">
<path fill-rule="evenodd" clip-rule="evenodd" d="M4.38044 0.536195C6.94263 0.178732 9.48249 0 12 0C14.5189 0 17.0602 0.178935 19.6239 0.536804C21.6155 0.814812 23.1809 2.38041 23.4587 4.37203C23.8196 6.9598 24 9.50245 24 12C24 14.499 23.8193 17.0431 23.458 19.6324C23.1802 21.6236 21.6153 23.1888 19.6242 23.4672C17.0828 23.8224 14.5414 24 12 24C9.46007 24 6.92014 23.8226 4.38021 23.4678C2.38858 23.1895 0.823298 21.6237 0.545839 19.6319C0.181946 17.0197 0 14.4757 0 12C0 9.52564 0.181742 6.98314 0.545225 4.37248C0.822597 2.3803 2.38834 0.814122 4.38044 0.536195Z" fill="white"/>
</mask>
<g mask="url(#mask0_4_12480)">
<path opacity="0.01" fill-rule="evenodd" clip-rule="evenodd" d="M3 3V21H21V3H3Z" fill="#1C8FF8" fill-opacity="0.338428"/>
<path d="M12.7739 9.98772V8.9391C12.7739 8.78168 12.7811 8.65975 12.7958 8.57361C12.8105 8.48735 12.8439 8.40251 12.8956 8.31876C12.9473 8.23506 13.0311 8.17727 13.1467 8.14525C13.2625 8.11318 13.4163 8.09719 13.6084 8.09719H14.657V6H12.9806C12.0107 6 11.314 6.23013 10.8906 6.69038C10.4672 7.15074 10.2556 7.82884 10.2556 8.72493V9.98769H9V12.085H10.2555V18.1701H12.7738V12.0851H14.4501L14.6716 9.98772H12.7739Z" fill="white"/>
</g>
</svg>
