<svg width="24" height="24" viewBox="0 0 24 24" fill="none" xmlns="http://www.w3.org/2000/svg">
<path fill-rule="evenodd" clip-rule="evenodd" d="M4 0C1.79086 0 0 1.79086 0 4V20C0 22.2091 1.79086 24 4 24H20C22.2091 24 24 22.2091 24 20V4C24 1.79086 22.2091 0 20 0H4Z" fill="#1C8FF8"/>
<path d="M13.0313 9.31637V7.91836C13.0313 7.70849 13.0409 7.54593 13.0605 7.4311C13.0801 7.3161 13.1246 7.20299 13.1936 7.09133C13.2625 6.97974 13.3742 6.90271 13.5283 6.86002C13.6827 6.81726 13.8878 6.79595 14.1438 6.79595H15.5418V4H13.3069C12.0138 4 11.085 4.3068 10.5205 4.92041C9.95609 5.53415 9.67391 6.43818 9.67391 7.63283V9.31633H8V12.1125H9.67381V20.225H13.0312V12.1125H15.2659L15.5613 9.31637H13.0313Z" fill="white"/>
</svg>
