<svg width="47" height="50" viewBox="0 0 47 50" fill="none" xmlns="http://www.w3.org/2000/svg">
<path d="M45.6133 44.2008C45.6133 44.2008 45.6525 43.3782 46.4574 43.4738L45.6133 44.2008Z" fill="#3F3D56"/>
<path d="M45.3862 43.418C45.6087 43.418 45.7891 43.2376 45.7891 43.0151C45.7891 42.7927 45.6087 42.6123 45.3862 42.6123C45.1638 42.6123 44.9834 42.7927 44.9834 43.0151C44.9834 43.2376 45.1638 43.418 45.3862 43.418Z" fill="#25A789"/>
<path d="M45.434 43.6934H45.3203V44.4893H45.434V43.6934Z" fill="#3F3D56"/>
<path d="M18.2654 20.0148C18.2654 20.2163 18.2588 20.4161 18.2458 20.6142C18.1726 21.7567 17.884 22.875 17.3951 23.9102C17.3913 23.919 17.3869 23.9272 17.3831 23.9354C17.3604 23.9834 17.337 24.0314 17.313 24.0788C17.1676 24.3716 17.0063 24.6562 16.8299 24.9314C16.0238 26.1946 14.9191 27.2399 13.6132 27.9748C12.3073 28.7097 10.8405 29.1116 9.34235 29.145L9.43267 34.3388L10.6105 33.7186L10.8208 34.1184L9.44152 34.8446L9.61013 44.4908L9.61201 44.6196L8.70134 44.8223L8.70322 44.6929L8.98994 29.1456C7.78411 29.1283 6.59372 28.8717 5.4879 28.3905C4.38208 27.9094 3.38285 27.2134 2.54824 26.3429C2.49079 26.2835 2.43393 26.2222 2.37836 26.1616C2.37583 26.1591 2.37395 26.1566 2.37204 26.1547C1.67665 25.3963 1.11426 24.5261 0.708572 23.5805C0.717423 23.5906 0.726887 23.6001 0.73574 23.6102C-0.181143 21.4661 -0.243328 19.0526 0.561926 16.8641C1.36718 14.6757 2.9789 12.878 5.06681 11.8396C5.09839 11.8238 5.13061 11.8086 5.16219 11.7928C7.22752 10.798 9.59123 10.6155 11.7848 11.2814C13.9784 11.9473 15.8417 13.4131 17.0054 15.3882C17.061 15.4817 17.1147 15.577 17.1665 15.673C17.8894 17.0059 18.2672 18.4985 18.2654 20.0148Z" fill="#E5E5E5"/>
<path d="M17.0356 23.9403C23.6465 23.9403 29.0058 18.5811 29.0058 11.9702C29.0058 5.35922 23.6465 0 17.0356 0C10.4247 0 5.06543 5.35922 5.06543 11.9702C5.06543 18.5811 10.4247 23.9403 17.0356 23.9403Z" fill="#25A789"/>
<path opacity="0.2" d="M8.19733 3.9751C5.59845 10.0543 8.41984 17.0893 14.4991 19.6882C16.8055 20.6742 19.3635 20.9108 21.8116 20.3646C24.2598 19.8184 26.4746 18.5169 28.1432 16.644C25.5446 22.7234 18.5096 25.5452 12.4302 22.9465C6.3508 20.3479 3.52905 13.313 6.12764 7.23361C6.63672 6.04263 7.3357 4.94215 8.19733 3.9751Z" fill="black"/>
<path d="M17.6836 45.3168L16.4609 44.9738L16.4635 44.8425L16.8298 24.9313L16.8481 23.9385L16.8487 23.9095L16.9125 20.431L17.0053 15.3887V15.3881L17.0685 11.9702H17.1019L17.1664 15.6729L17.2504 20.4922L17.3104 23.912V23.9373L17.3129 24.0781V24.0787L17.4291 30.7446L17.4411 31.4071L17.6811 45.1842L17.6836 45.3168Z" fill="#3F3D56"/>
<path d="M18.9728 29.9319L16.9941 30.9736L17.2699 31.4974L19.2486 30.4556L18.9728 29.9319Z" fill="#3F3D56"/>
<path d="M16.8014 47.7266H11.1572V47.8529H16.8014V47.7266Z" fill="#CBCBCB"/>
<path d="M27.1588 49.8738H21.5146V50.0001H27.1588V49.8738Z" fill="#CBCBCB"/>
<path d="M43.2633 48.2317H37.6191V48.358H43.2633V48.2317Z" fill="#CBCBCB"/>
<path d="M40.6855 43.0924V39.4185C40.6855 39.4185 42.1173 42.0231 40.6855 43.0924Z" fill="#F1F1F1"/>
<path d="M40.7738 43.0917L38.0674 40.6072C38.0674 40.6072 40.9544 41.3139 40.7738 43.0917Z" fill="#F1F1F1"/>
<path d="M12.708 43.9766V40.3027C12.708 40.3027 14.1398 42.9074 12.708 43.9766Z" fill="#F1F1F1"/>
<path d="M12.7963 43.976L10.0898 41.4915C10.0898 41.4915 12.9768 42.1982 12.7963 43.976Z" fill="#F1F1F1"/>
<path d="M22.4336 46.6291V42.0605C22.4336 42.0605 24.214 45.2995 22.4336 46.6291Z" fill="#F1F1F1"/>
<path d="M22.5432 46.6284L19.1777 43.5388C19.1777 43.5388 22.7677 44.4176 22.5432 46.6284Z" fill="#F1F1F1"/>
<path d="M51.3638 46.0702L51.3291 46.1921L40.7299 43.1733L32.7454 44.9334L22.534 46.6777L22.5201 46.6739L17.6838 45.3168L16.4611 44.9738L12.7268 43.9255L9.61205 44.6195L8.70137 44.8223L6.72149 45.2637L6.69434 45.1406L8.70327 44.6928L9.61016 44.4907L12.7306 43.7954L12.7458 43.7992L16.4636 44.8425L17.6812 45.1841L22.5403 46.5483L32.7207 44.8096L40.7337 43.0432L40.7495 43.047L51.3638 46.0702Z" fill="#CBCBCB"/>
<path d="M32.4008 7.66924L33.2089 7.02297C32.5811 6.95371 32.3232 7.29606 32.2176 7.56703C31.7272 7.3634 31.1934 7.63027 31.1934 7.63027L32.8101 8.2172C32.7285 7.99935 32.5866 7.80927 32.4008 7.66924Z" fill="#3F3D56"/>
<path d="M2.71917 7.41656L3.52722 6.77028C2.89948 6.70103 2.64156 7.04338 2.536 7.31435C2.04559 7.11072 1.51172 7.37759 1.51172 7.37759L3.12847 7.96453C3.0469 7.74668 2.90492 7.55659 2.71917 7.41656Z" fill="#3F3D56"/>
<path d="M30.6332 19.7315L31.4413 19.0852C30.8135 19.016 30.5556 19.3583 30.45 19.6293C29.9596 19.4257 29.4258 19.6925 29.4258 19.6925L31.0425 20.2795C30.9609 20.0616 30.819 19.8715 30.6332 19.7315Z" fill="#3F3D56"/>
<path d="M25.1455 47.5283L25.7631 47.7578L26.942 45.4849L26.0305 45.1462L25.1455 47.5283Z" fill="#FFB7B7"/>
<path d="M25.063 47.2681L26.2792 47.7199L26.2793 47.72C26.4848 47.7964 26.6516 47.9513 26.743 48.1506C26.8343 48.35 26.8427 48.5775 26.7664 48.783L26.757 48.8082L24.7656 48.0684L25.063 47.2681Z" fill="#2F2E41"/>
<path d="M31.2228 48.1697L31.8816 48.1696L32.195 45.6284L31.2227 45.6285L31.2228 48.1697Z" fill="#FFB7B7"/>
<path d="M31.1084 47.9544L32.4059 47.9543H32.4059C32.6252 47.9544 32.8355 48.0415 32.9906 48.1965C33.1456 48.3516 33.2328 48.5619 33.2328 48.7812V48.8081L31.1084 48.8081L31.1084 47.9544Z" fill="#2F2E41"/>
<path d="M28.2064 30.5451L28.4214 30.1152L30.2485 31.0288L30.1948 31.405L30.5441 31.8618C30.5441 31.8618 31.1352 32.1842 31.0277 33.259L30.9203 34.28L30.7859 35.5966L31.7263 38.8478L32.21 43.147L32.5593 46.6131L30.8665 46.5325L29.3081 40.8899L26.5674 46.9624L24.6865 46.4788L27.266 40.46L27.5884 37.9343C27.5884 37.9343 27.3735 36.5908 28.3945 35.6772L28.2333 35.1936V34.5976L27.6959 31.7543L28.2064 30.5451Z" fill="#2F2E41"/>
<path opacity="0.2" d="M28.1565 36.6899L28.0957 36.707L29.278 40.8987L29.3387 40.8816L28.1565 36.6899Z" fill="black"/>
<path d="M28.2603 35.8655H30.8936V35.5968H28.2603V35.8655Z" fill="#3F3D56"/>
<path d="M30.8936 36.0266C30.953 36.0266 31.0011 35.9063 31.0011 35.758C31.0011 35.6096 30.953 35.4893 30.8936 35.4893C30.8343 35.4893 30.7861 35.6096 30.7861 35.758C30.7861 35.9063 30.8343 36.0266 30.8936 36.0266Z" fill="#3F3D56"/>
<path d="M30.9626 29.2804C31.3421 28.5862 31.0869 27.7158 30.3928 27.3364C29.6986 26.9569 28.8283 27.212 28.4488 27.9062C28.0693 28.6003 28.3245 29.4707 29.0186 29.8502C29.7128 30.2296 30.5831 29.9745 30.9626 29.2804Z" fill="#FFB7B7"/>
<path d="M27.5143 28.0821C28.2142 28.0821 28.7815 27.5147 28.7815 26.8148C28.7815 26.115 28.2142 25.5476 27.5143 25.5476C26.8144 25.5476 26.2471 26.115 26.2471 26.8148C26.2471 27.5147 26.8144 28.0821 27.5143 28.0821Z" fill="#2F2E41"/>
<path d="M25.9062 26.679C25.8562 26.8469 25.8416 27.0233 25.8632 27.1971C25.8849 27.371 25.9423 27.5385 26.032 27.689C26.1216 27.8395 26.2415 27.9698 26.384 28.0716C26.5266 28.1735 26.6887 28.2447 26.8601 28.2807C27.0315 28.3168 27.2086 28.3169 27.3801 28.281C27.5516 28.2452 27.7138 28.1742 27.8564 28.0725C27.9991 27.9708 28.1191 27.8407 28.2089 27.6903C28.2987 27.5398 28.3564 27.3725 28.3782 27.1986C28.2874 27.5035 28.0853 27.7631 27.812 27.9258C27.5387 28.0885 27.2142 28.1425 26.9029 28.0771C26.5916 28.0117 26.3163 27.8316 26.1317 27.5725C25.947 27.3135 25.8665 26.9946 25.9062 26.679Z" fill="#2F2E41"/>
<path d="M30.9118 28.1957C30.949 28.5233 30.8771 28.854 30.7073 29.1366C30.5375 29.4191 30.2792 29.6378 29.9725 29.7587C29.6658 29.8796 29.3278 29.8959 29.0108 29.8052C28.6939 29.7145 28.4157 29.5218 28.2194 29.257C28.0231 28.9921 27.9196 28.6699 27.925 28.3403C27.9304 28.0107 28.0443 27.692 28.2492 27.4337C28.4541 27.1754 28.7384 26.9919 29.0581 26.9116C29.3778 26.8313 29.7151 26.8587 30.0177 26.9895C30.268 26.7877 30.5783 26.8502 30.8305 27.0632C31.1157 27.3041 31.2004 27.4695 31.4216 27.8656C31.2041 27.8962 31.1293 28.1652 30.9118 28.1957Z" fill="#2F2E41"/>
<path d="M25.6472 32.5035C25.6632 32.9281 25.695 33.7637 25.695 33.8063C25.695 33.8512 26.3285 35.1629 26.6021 35.7274V35.7277C26.6216 35.7675 26.6391 35.8035 26.6545 35.8353C26.6757 35.8791 26.709 35.9159 26.7504 35.9414C26.7919 35.9669 26.8398 35.9799 26.8884 35.979L28.0844 35.9575C28.1501 35.9564 28.2129 35.9299 28.2596 35.8836C28.3062 35.8373 28.3332 35.7748 28.3349 35.7091L28.4683 30.4474C28.4687 30.43 28.4657 30.4127 28.4593 30.3966C28.453 30.3804 28.4435 30.3657 28.4314 30.3533C28.4193 30.3408 28.4048 30.331 28.3888 30.3242C28.3728 30.3175 28.3557 30.314 28.3383 30.314H26.7959C26.7308 30.314 26.667 30.3324 26.6118 30.367C26.5566 30.4016 26.5123 30.4511 26.4839 30.5098L25.7437 32.0412C25.6743 32.1852 25.6411 32.3439 25.6472 32.5035V32.5035Z" fill="#25A789"/>
<path d="M28.3557 35.3479C28.6626 35.162 28.9383 34.9289 29.1729 34.6573C29.7178 34.0444 30.0492 33.2713 30.1174 32.454C30.1782 31.7547 30.0394 31.2349 29.705 30.9091C29.2798 30.4948 28.7012 30.555 28.6767 30.5578L28.6508 30.5607L28.2588 30.8925L28.3697 31.0236L28.7205 30.7267C28.8279 30.7214 29.2663 30.7202 29.5865 31.0334C29.8812 31.3217 30.0023 31.7947 29.9462 32.4391C29.8814 33.2173 29.5667 33.9536 29.049 34.5382C28.8256 34.7965 28.5638 35.0189 28.2728 35.1975L28.3557 35.3479Z" fill="#25A789"/>
<path d="M26.1297 33.349L26.1182 33.405L28.2079 33.8342L28.2194 33.7781L26.1297 33.349Z" fill="#3F3D56"/>
<path d="M27.5068 30.3126L27.3711 33.6377L27.4283 33.64L27.564 30.3149L27.5068 30.3126Z" fill="#3F3D56"/>
<path d="M25.6463 32.5036C25.6623 32.9281 25.6941 33.7637 25.6941 33.8063C25.6941 33.8513 26.3276 35.1629 26.6013 35.7274L26.0911 32.7655C26.0714 32.6515 26.0218 32.5449 25.9473 32.4564C25.8728 32.3679 25.7761 32.3008 25.6672 32.262C25.65 32.3413 25.643 32.4225 25.6463 32.5036Z" fill="#3F3D56"/>
<path d="M28.7806 38.7109C28.7354 38.6527 28.7036 38.5853 28.6873 38.5134C28.671 38.4416 28.6706 38.367 28.6863 38.2951C28.7019 38.2231 28.7331 38.1554 28.7777 38.0968C28.8223 38.0381 28.8793 37.99 28.9445 37.9558L28.8408 36.8089L29.5224 36.5759L29.646 38.1976C29.6963 38.311 29.7032 38.4388 29.6655 38.557C29.6277 38.6751 29.548 38.7754 29.4413 38.8386C29.3346 38.9019 29.2085 38.9238 29.0867 38.9003C28.9649 38.8768 28.856 38.8094 28.7806 38.7109Z" fill="#FFB7B7"/>
<path d="M28.3343 31.789C28.321 31.6148 28.366 31.4412 28.4623 31.2955C28.5587 31.1498 28.7007 31.0403 28.8662 30.9843C29.012 30.9361 29.1696 30.9362 29.3154 30.9847C29.4714 31.0378 29.6067 31.1387 29.7023 31.2729C29.7979 31.4072 29.8488 31.5681 29.848 31.733L29.899 37.5572L28.6914 37.601L28.3343 31.789Z" fill="#CBCBCB"/>
</svg>
