<svg width="12" height="12" viewBox="0 0 12 12" fill="none" xmlns="http://www.w3.org/2000/svg">
<path fill-rule="evenodd" clip-rule="evenodd" d="M6.38717 4.66475C6.55854 4.66475 6.70508 4.6082 6.8268 4.4951C6.94851 4.38201 7.00954 4.24478 7.00954 4.08375C7.00954 3.92342 6.94851 3.7855 6.8268 3.67137C6.70542 3.55689 6.55854 3.5 6.38717 3.5C6.21615 3.5 6.06857 3.55689 5.94582 3.67137C5.82411 3.7855 5.76204 3.92342 5.76204 4.08375C5.76204 4.24443 5.82376 4.38201 5.94582 4.4951C6.06857 4.6082 6.21615 4.66475 6.38717 4.66475ZM6.37132 8.43487C6.49648 8.39142 6.66337 8.32867 6.87301 8.24591L6.943 7.96076C6.90645 7.97766 6.84853 7.99731 6.76853 8.01938C6.68785 8.04145 6.61648 8.05282 6.55269 8.05282C6.41752 8.05282 6.32201 8.03041 6.26753 7.98593C6.21237 7.94145 6.18513 7.85767 6.18513 7.73492C6.18513 7.6863 6.1934 7.61389 6.2103 7.51907C6.22754 7.42425 6.2465 7.33943 6.26788 7.26529L6.52889 6.34122C6.55441 6.25605 6.572 6.1633 6.58131 6.06158C6.59061 5.96021 6.59544 5.88918 6.59544 5.84884C6.59544 5.65437 6.52683 5.4961 6.39063 5.37439C6.25374 5.25302 6.05927 5.19164 5.80722 5.19164C5.66758 5.19164 5.51931 5.21647 5.36242 5.26681C5.20554 5.31646 5.04107 5.37646 4.86935 5.44645L4.80005 5.73195C4.85039 5.71264 4.91177 5.69299 4.98245 5.67126C5.05382 5.65023 5.12347 5.64023 5.19106 5.64023C5.32932 5.64023 5.42207 5.66299 5.47138 5.70954C5.52 5.75609 5.54448 5.83884 5.54448 5.95676C5.54448 6.02296 5.53689 6.09572 5.52103 6.17502C5.50517 6.25364 5.48517 6.33811 5.46207 6.42707L5.19968 7.35391C5.17657 7.45149 5.15968 7.53838 5.14899 7.61561C5.13865 7.69285 5.13347 7.76871 5.13347 7.84284C5.13347 8.03352 5.20347 8.1904 5.34415 8.31419C5.48483 8.43797 5.6824 8.50003 5.93618 8.50003C6.10134 8.50003 6.2465 8.47831 6.37132 8.43487Z" fill="#000229"/>
<circle cx="6" cy="6" r="4.5" stroke="#000229"/>
</svg>
