<svg width="24" height="24" viewBox="0 0 32 32" fill="none" xmlns="http://www.w3.org/2000/svg">
<path fill-rule="evenodd" clip-rule="evenodd" d="M5.84059 0.714927C9.25685 0.238309 12.6433 0 16 0C19.3586 0 22.747 0.23858 26.1652 0.715739C28.8207 1.08642 30.9079 3.17388 31.2782 5.82937C31.7594 9.27973 32 12.6699 32 16C32 19.332 31.7591 22.7241 31.2774 26.1765C30.9069 28.8314 28.8204 30.9185 26.1655 31.2895C22.777 31.7632 19.3885 32 16 32C12.6134 32 9.22686 31.7635 5.84029 31.2904C3.18477 30.9194 1.09773 28.8316 0.727785 26.1759C0.242595 22.693 0 19.301 0 16C0 12.7009 0.242322 9.31085 0.726967 5.82997C1.0968 3.17373 3.18445 1.0855 5.84059 0.714927Z" fill="#0077B7"/>
<mask id="mask0_4_2225" style="mask-type:alpha" maskUnits="userSpaceOnUse" x="0" y="0" width="32" height="32">
<path fill-rule="evenodd" clip-rule="evenodd" d="M5.84059 0.714927C9.25685 0.238309 12.6433 0 16 0C19.3586 0 22.747 0.23858 26.1652 0.715739C28.8207 1.08642 30.9079 3.17388 31.2782 5.82937C31.7594 9.27973 32 12.6699 32 16C32 19.332 31.7591 22.7241 31.2774 26.1765C30.9069 28.8314 28.8204 30.9185 26.1655 31.2895C22.777 31.7632 19.3885 32 16 32C12.6134 32 9.22686 31.7635 5.84029 31.2904C3.18477 30.9194 1.09773 28.8316 0.727785 26.1759C0.242595 22.693 0 19.301 0 16C0 12.7009 0.242322 9.31085 0.726967 5.82997C1.0968 3.17373 3.18445 1.0855 5.84059 0.714927Z" fill="white"/>
</mask>
<g mask="url(#mask0_4_2225)">
<path fill-rule="evenodd" clip-rule="evenodd" d="M9.45044 11.7549C8.0394 11.7549 6.89551 10.611 6.89551 9.19995C6.89551 7.78891 8.0394 6.64502 9.45044 6.64502C10.8615 6.64502 12.0054 7.78891 12.0054 9.19995C12.0054 10.611 10.8615 11.7549 9.45044 11.7549ZM11.4269 24.7232C11.4269 25.0721 11.1441 25.355 10.7951 25.355H8.10575C7.75681 25.355 7.47396 25.0721 7.47396 24.7232V13.4494C7.47396 13.1005 7.75681 12.8176 8.10575 12.8176H10.7951C11.1441 12.8176 11.4269 13.1005 11.4269 13.4494V24.7232ZM24.9007 25.355C25.2215 25.355 25.4816 25.0949 25.4816 24.7741V19.3178V19.2775C25.4817 16.8972 25.482 12.6284 20.8869 12.6284C18.8001 12.6284 17.82 13.3923 17.1605 14.3821V13.3985C17.1605 13.0777 16.9004 12.8176 16.5796 12.8176H13.7885C13.4677 12.8176 13.2076 13.0777 13.2076 13.3985V24.7741C13.2076 25.0949 13.4677 25.355 13.7885 25.355H16.5796C16.9005 25.355 17.1605 25.0949 17.1605 24.7741V18.6749C17.233 17.8553 17.5937 16.0292 19.3723 16.0292C21.4963 16.0292 21.4542 18.3186 21.4365 19.2829C21.4351 19.3596 21.4339 19.4279 21.4339 19.486V24.7741C21.4339 25.0949 21.694 25.355 22.0148 25.355H24.9007Z" fill="white"/>
</g>
</svg>
