<svg width="24" height="24" viewBox="0 0 24 24" fill="none" xmlns="http://www.w3.org/2000/svg">
<path fill-rule="evenodd" clip-rule="evenodd" d="M4.38044 0.536195C6.94263 0.178732 9.48249 0 12 0C14.5189 0 17.0602 0.178935 19.6239 0.536804C21.6155 0.814812 23.1809 2.38041 23.4587 4.37203C23.8196 6.9598 24 9.50245 24 12C24 14.499 23.8193 17.0431 23.458 19.6324C23.1802 21.6236 21.6153 23.1888 19.6242 23.4672C17.0828 23.8224 14.5414 24 12 24C9.46007 24 6.92014 23.8226 4.38021 23.4678C2.38858 23.1895 0.823298 21.6237 0.545839 19.6319C0.181946 17.0197 0 14.4757 0 12C0 9.52564 0.181742 6.98314 0.545225 4.37248C0.822597 2.3803 2.38834 0.814122 4.38044 0.536195Z" fill="#0077B7"/>
<mask id="mask0_118_49187" style="mask-type:alpha" maskUnits="userSpaceOnUse" x="0" y="0" width="24" height="24">
<path fill-rule="evenodd" clip-rule="evenodd" d="M4.38044 0.536195C6.94263 0.178732 9.48249 0 12 0C14.5189 0 17.0602 0.178935 19.6239 0.536804C21.6155 0.814812 23.1809 2.38041 23.4587 4.37203C23.8196 6.9598 24 9.50245 24 12C24 14.499 23.8193 17.0431 23.458 19.6324C23.1802 21.6236 21.6153 23.1888 19.6242 23.4672C17.0828 23.8224 14.5414 24 12 24C9.46007 24 6.92014 23.8226 4.38021 23.4678C2.38858 23.1895 0.823298 21.6237 0.545839 19.6319C0.181946 17.0197 0 14.4757 0 12C0 9.52564 0.181742 6.98314 0.545225 4.37248C0.822597 2.3803 2.38834 0.814122 4.38044 0.536195Z" fill="white"/>
</mask>
<g mask="url(#mask0_118_49187)">
<path fill-rule="evenodd" clip-rule="evenodd" d="M7.08783 8.81628C6.02955 8.81628 5.17163 7.95836 5.17163 6.90009C5.17163 5.84181 6.02955 4.98389 7.08783 4.98389C8.14611 4.98389 9.00403 5.84181 9.00403 6.90009C9.00403 7.95836 8.14615 8.81628 7.08783 8.81628ZM8.5697 18.5422C8.5697 18.8039 8.35757 19.0161 8.09586 19.0161H6.07882C5.81712 19.0161 5.60498 18.8039 5.60498 18.5422V10.0869C5.60498 9.82517 5.81712 9.61304 6.07882 9.61304H8.09586C8.35757 9.61304 8.5697 9.82517 8.5697 10.0869V18.5422ZM18.6756 19.0162C18.9162 19.0162 19.1113 18.8211 19.1113 18.5805V14.4883L19.1113 14.4581C19.1114 12.6729 19.1116 9.47131 15.6653 9.47131C14.1002 9.47131 13.3651 10.0443 12.8705 10.7865V10.0489C12.8705 9.80827 12.6754 9.61319 12.4348 9.61319H10.3414C10.1008 9.61319 9.90576 9.80827 9.90576 10.0489V18.5805C9.90576 18.8211 10.1008 19.0162 10.3414 19.0162H12.4348C12.6755 19.0162 12.8705 18.8211 12.8705 18.5805V14.0061C12.9248 13.3915 13.1954 12.0219 14.5293 12.0219C16.1223 12.0219 16.0908 13.7389 16.0775 14.4622C16.0764 14.5197 16.0755 14.5709 16.0755 14.6145V18.5805C16.0755 18.8211 16.2706 19.0162 16.5111 19.0162H18.6756Z" fill="white"/>
</g>
</svg>
