<svg width="24" height="24" viewBox="0 0 24 24" fill="none" xmlns="http://www.w3.org/2000/svg">
<path d="M23.25 5.25076H12.75C12.336 5.25076 12 5.58676 12 6.00076C12 6.41476 12.336 6.75076 12.75 6.75076H21.0645L16.4565 10.3343L13.152 8.23276L12.348 9.49876L16.098 11.8838C16.2195 11.9618 16.3605 12.0008 16.5 12.0008C16.662 12.0008 16.8255 11.9483 16.9605 11.8433L22.5 7.53376V17.2508H12.75C12.336 17.2508 12 17.5868 12 18.0008C12 18.4148 12.336 18.7508 12.75 18.7508H23.25C23.664 18.7508 24 18.4148 24 18.0008V6.00076C24 5.58676 23.664 5.25076 23.25 5.25076Z" fill="#1976D2"/>
<path d="M13.2285 0.923175C13.0575 0.780675 12.828 0.719175 12.612 0.764175L0.612 3.01418C0.2565 3.08018 0 3.38918 0 3.75068V20.2507C0 20.6107 0.2565 20.9212 0.612 20.9872L12.612 23.2372C12.657 23.2462 12.7035 23.2507 12.75 23.2507C12.924 23.2507 13.0935 23.1907 13.2285 23.0782C13.401 22.9357 13.5 22.7227 13.5 22.5007V1.50068C13.5 1.27718 13.401 1.06567 13.2285 0.923175Z" fill="#2196F3"/>
<path d="M6.75 17.2507C4.683 17.2507 3 15.2318 3 12.7508C3 10.2698 4.683 8.25076 6.75 8.25076C8.817 8.25076 10.5 10.2698 10.5 12.7508C10.5 15.2318 8.817 17.2507 6.75 17.2507ZM6.75 9.75076C5.5095 9.75076 4.5 11.0963 4.5 12.7508C4.5 14.4053 5.5095 15.7508 6.75 15.7508C7.9905 15.7508 9 14.4053 9 12.7508C9 11.0963 7.9905 9.75076 6.75 9.75076Z" fill="#FAFAFA"/>
</svg>
