<svg width="40" height="40" viewBox="0 0 40 40" fill="none" xmlns="http://www.w3.org/2000/svg">
<path d="M38.4 8H1.6C0.716344 8 0 8.71634 0 9.6V30.4C0 31.2837 0.716344 32 1.6 32H38.4C39.2837 32 40 31.2837 40 30.4V9.6C40 8.71634 39.2837 8 38.4 8Z" fill="#26337A"/>
<path fill-rule="evenodd" clip-rule="evenodd" d="M16.5958 23.819L17.8258 16.189H19.7918L18.5618 23.819H16.5958ZM25.6928 16.376C25.3038 16.223 24.6928 16.056 23.9318 16.056C21.9878 16.056 20.6198 17.092 20.6078 18.574C20.5958 19.671 21.5848 20.282 22.3298 20.647C23.0958 21.021 23.3528 21.26 23.3498 21.594C23.3448 22.104 22.7388 22.339 22.1738 22.339C21.3868 22.339 20.9678 22.224 20.3218 21.939L20.0688 21.817L19.7938 23.525C20.2528 23.738 21.1018 23.922 21.9838 23.932C24.0498 23.932 25.3918 22.909 25.4078 21.326C25.4148 20.456 24.8908 19.797 23.7568 19.253C23.0698 18.899 22.6478 18.665 22.6528 18.306C22.6528 17.989 23.0088 17.65 23.7788 17.65C24.4218 17.64 24.8878 17.788 25.2498 17.943L25.4268 18.03L25.6928 16.376ZM28.3098 21.114C28.4738 20.675 29.0938 18.981 29.0938 18.981C29.0828 19.001 29.2558 18.539 29.3548 18.253L29.4878 18.911L29.9428 21.114H28.3108H28.3098ZM30.7358 16.197H29.2168C28.7458 16.197 28.3928 16.332 28.1868 16.829L25.2668 23.821H27.3318C27.3318 23.821 27.6688 22.881 27.7448 22.674L30.2628 22.678C30.3228 22.945 30.5028 23.821 30.5028 23.821H32.3268L30.7368 16.197H30.7358ZM14.9468 16.195L13.0218 21.397L12.8158 20.34C12.4578 19.121 11.3418 17.801 10.0928 17.14L11.8528 23.812L13.9338 23.811L17.0298 16.195H14.9468Z" fill="#FFFFFE"/>
<path fill-rule="evenodd" clip-rule="evenodd" d="M11.236 16.19H8.06604L8.04004 16.348C10.507 16.98 12.139 18.506 12.816 20.34L12.127 16.834C12.009 16.351 11.663 16.207 11.237 16.19" fill="#EC982D"/>
</svg>
