<svg width="32" height="32" viewBox="0 0 32 32" fill="none" xmlns="http://www.w3.org/2000/svg">
<rect width="32" height="32" rx="8" fill="#44D7B6"/>
<path d="M16.3536 21.2426L21.4181 16.1781C22.6625 14.9337 22.8461 12.8865 21.6684 11.5787C21.3735 11.2502 21.0146 10.9852 20.6139 10.8C20.2131 10.6147 19.7788 10.513 19.3374 10.5012C18.8961 10.4893 18.4569 10.5675 18.0468 10.7309C17.6367 10.8944 17.2641 11.1397 16.9519 11.4519L16 12.4038L15.1781 11.5819C13.9337 10.3375 11.8865 10.1539 10.5787 11.3316C10.2502 11.6265 9.98524 11.9854 9.79998 12.3861C9.61471 12.7869 9.51304 13.2212 9.50117 13.6626C9.48931 14.1039 9.56749 14.5431 9.73094 14.9532C9.8944 15.3634 10.1397 15.7359 10.4519 16.0481L15.6464 21.2426C15.7402 21.3364 15.8674 21.3891 16 21.3891C16.1326 21.3891 16.2598 21.3364 16.3536 21.2426V21.2426Z" stroke="white" stroke-linecap="round" stroke-linejoin="round"/>
</svg>
