<svg width="64" height="64" viewBox="0 0 64 64" fill="none" xmlns="http://www.w3.org/2000/svg">
<circle cx="32" cy="32" r="32" fill="#E8769F"/>
<path d="M42.9995 23L20.9995 23" stroke="white" stroke-linecap="round" stroke-linejoin="round"/>
<path d="M29 29V37" stroke="white" stroke-linecap="round" stroke-linejoin="round"/>
<path d="M35 29V37" stroke="white" stroke-linecap="round" stroke-linejoin="round"/>
<path d="M40.9995 23V42C40.9995 42.2652 40.8942 42.5196 40.7066 42.7071C40.5191 42.8946 40.2647 43 39.9995 43H23.9995C23.7343 43 23.4799 42.8946 23.2924 42.7071C23.1049 42.5196 22.9995 42.2652 22.9995 42V23" stroke="white" stroke-linecap="round" stroke-linejoin="round"/>
<path d="M37 23V21C37 20.4696 36.7893 19.9609 36.4142 19.5858C36.0391 19.2107 35.5304 19 35 19H29C28.4696 19 27.9609 19.2107 27.5858 19.5858C27.2107 19.9609 27 20.4696 27 21V23" stroke="white" stroke-linecap="round" stroke-linejoin="round"/>
</svg>
