<svg width="58" height="40" viewBox="0 0 58 40" fill="none" xmlns="http://www.w3.org/2000/svg">
<path d="M29.1162 39.2878C28.6146 39.2874 28.1212 39.4149 27.6826 39.6583H30.5461C30.1088 39.4149 29.6166 39.2874 29.1162 39.2878Z" fill="#E6E6E6"/>
<path d="M34.673 38.9172C33.8352 38.9163 33.0176 39.1751 32.333 39.6581H37.0099C36.3262 39.1757 35.5098 38.9169 34.673 38.9172Z" fill="#E6E6E6"/>
<path d="M66.1477 34.228C65.9385 30.4342 62.8903 27.341 59.0996 27.0817C57.3522 26.9589 55.6161 27.4438 54.1853 28.4544C52.7545 29.465 51.7169 30.939 51.2484 32.6269C51.1564 32.6236 51.0645 32.6199 50.9717 32.6199C49.3311 32.6202 47.7346 33.1517 46.4212 34.1349C45.1078 35.1181 44.1481 36.5001 43.6855 38.0742C42.5984 37.5965 41.3835 37.4929 40.2311 37.7795C39.0788 38.0661 38.054 38.7269 37.3174 39.6582H61.0053C63.9155 39.6582 66.2718 37.2477 66.1531 34.34C66.1516 34.3027 66.1498 34.2654 66.1477 34.228Z" fill="#E6E6E6"/>
<path d="M65.5325 39.5798H-1V39.7366H65.5325V39.5798Z" fill="#3F3D56"/>
<path d="M21.2042 14.1245C21.2042 14.1245 18.1844 13.1838 18.648 14.7314C19.1116 16.279 21.6551 15.4973 21.6551 15.4973L21.2042 14.1245Z" fill="#FFB8B8"/>
<path d="M32.7484 8.31565C32.7484 8.31565 31.2008 6.20082 29.6972 8.39628C28.1907 10.5961 26.79 12.402 26.79 12.402L23.0484 13.6219L20.8838 13.814L21.4801 15.7385L27.7739 14.8254C27.7739 14.8254 34.7809 10.6631 32.7484 8.31565Z" fill="#2F2E41"/>
<path d="M25.8404 20.0276C25.8404 20.0276 23.4894 21.6733 23.6462 23.1622C23.8029 24.6512 24.8217 28.7262 24.8217 28.7262L26.9375 28.4127C26.9375 28.4127 27.1726 25.2781 26.389 24.1026L30.1505 21.9867L25.8404 20.0276Z" fill="#FFB8B8"/>
<path d="M31.0515 23.9067C31.0515 23.9067 30.8947 26.8063 31.2866 27.9818C31.6784 29.1572 32.0702 33.5457 32.0702 33.5457H34.2645C34.2645 33.5457 35.2832 29.7058 34.0294 27.9818C34.0294 27.9818 33.6375 25.7092 34.7347 24.612L31.0515 23.9067Z" fill="#FFB8B8"/>
<path d="M30.542 15.8742C30.542 15.8742 25.4482 19.0872 25.4482 20.106L29.5233 23.4757L30.9338 21.9084L30.7771 24.2594L35.1656 25.1214C35.1656 25.1214 36.7329 19.1656 36.6545 18.9305C36.5762 18.6954 36.3411 15.2473 36.3411 15.2473L30.542 15.8742Z" fill="#2F2E41"/>
<path d="M26.9376 28.021L24.665 28.4912L25.0688 30.1512C25.2675 30.9682 25.2902 31.8181 25.1352 32.6446C25.1352 32.6446 27.4862 33.2715 27.4862 32.958C27.4862 32.6446 26.9376 31.3907 27.0944 30.5287C27.2511 29.6667 26.9376 28.021 26.9376 28.021Z" fill="#0091FF"/>
<path d="M28.1132 33.8983C28.0348 33.5848 27.3837 32.1636 27.3566 32.404C27.3296 32.6444 26.0757 33.0363 25.6055 32.5661C25.6055 32.5661 24.9786 32.0175 24.7435 32.5661C24.5084 33.1146 24.0382 34.055 24.0382 34.055C24.0382 34.055 21.9223 35.0738 22.2358 35.6223C22.2992 35.7333 22.4748 35.7801 22.7146 35.7842C22.709 35.7987 22.7061 35.8141 22.706 35.8297V35.8852C22.706 35.9194 22.7196 35.9522 22.7438 35.9764C22.7679 36.0006 22.8007 36.0142 22.8349 36.0142H22.8905C22.9247 36.0142 22.9575 36.0006 22.9817 35.9764C23.0059 35.9522 23.0194 35.9194 23.0194 35.8852V35.8297C23.0193 35.8097 23.0145 35.79 23.0054 35.7722C23.0694 35.7666 23.1359 35.7591 23.2043 35.7502C23.1862 35.7727 23.1763 35.8007 23.1762 35.8297V35.8852C23.1762 35.9194 23.1898 35.9522 23.2139 35.9764C23.2381 36.0006 23.2709 36.0142 23.3051 36.0142H23.3607C23.3949 36.0142 23.4277 36.0006 23.4519 35.9764C23.476 35.9522 23.4896 35.9194 23.4896 35.8852V35.8297C23.4896 35.8067 23.4834 35.7842 23.4716 35.7644C23.4599 35.7447 23.4431 35.7284 23.4229 35.7174C23.6033 35.6873 23.7916 35.649 23.9788 35.6065C23.9665 35.6265 23.9599 35.6495 23.9598 35.6729V35.7285C23.9598 35.7627 23.9734 35.7955 23.9976 35.8197C24.0218 35.8438 24.0546 35.8574 24.0888 35.8574H24.1443C24.1785 35.8574 24.2113 35.8438 24.2355 35.8197C24.2597 35.7955 24.2733 35.7627 24.2733 35.7285V35.6729C24.2733 35.648 24.266 35.6236 24.2524 35.6027C24.2388 35.5818 24.2194 35.5653 24.1966 35.5552C24.337 35.521 24.4746 35.4853 24.6056 35.4499C24.5934 35.4699 24.5869 35.4928 24.5868 35.5162V35.5717C24.5868 35.6059 24.6003 35.6387 24.6245 35.6629C24.6487 35.6871 24.6815 35.7007 24.7157 35.7007H24.7713C24.8055 35.7007 24.8383 35.6871 24.8624 35.6629C24.8866 35.6387 24.9002 35.6059 24.9002 35.5717V35.5162C24.9002 35.4888 24.8913 35.4621 24.875 35.44C24.8587 35.418 24.8357 35.4017 24.8095 35.3937C25.2697 35.264 25.6055 35.1521 25.6055 35.1521C25.6055 35.1521 25.9954 35.0103 26.4675 34.8186V34.8664C26.4675 34.9006 26.4811 34.9334 26.5053 34.9576C26.5295 34.9818 26.5623 34.9954 26.5965 34.9954H26.652C26.6862 34.9954 26.719 34.9818 26.7432 34.9576C26.7674 34.9334 26.781 34.9006 26.781 34.8664V34.8109C26.7809 34.7914 26.7764 34.7721 26.7678 34.7545C26.7591 34.737 26.7466 34.7217 26.7311 34.7097C26.8259 34.6699 26.9215 34.6289 27.0161 34.5873V34.6313C27.0161 34.6655 27.0297 34.6984 27.0539 34.7225C27.078 34.7467 27.1109 34.7603 27.1451 34.7603H27.2006C27.2348 34.7603 27.2676 34.7467 27.2918 34.7225C27.316 34.6984 27.3296 34.6655 27.3296 34.6313V34.5758C27.3295 34.5551 27.3245 34.5346 27.3149 34.5162C27.3053 34.4979 27.2914 34.4821 27.2744 34.4702C27.3766 34.4225 27.4751 34.3749 27.5659 34.3282C27.5655 34.3324 27.5647 34.3364 27.5647 34.3407V34.3962C27.5647 34.4304 27.5782 34.4633 27.6024 34.4874C27.6266 34.5116 27.6594 34.5252 27.6936 34.5252H27.7491C27.7834 34.5252 27.8162 34.5116 27.8403 34.4874C27.8645 34.4633 27.8781 34.4304 27.8781 34.3962V34.3407C27.8781 34.311 27.8678 34.2822 27.849 34.2591C27.8302 34.2361 27.804 34.2203 27.7749 34.2143C27.994 34.0871 28.1322 33.9742 28.1132 33.8983Z" fill="#2F2E41"/>
<path d="M34.4217 33.1931L31.9391 33.0364C31.9391 33.0364 32.0896 35.6224 31.7887 36.4845C31.4877 37.3465 31.6382 37.66 31.6382 37.66L33.8199 37.8167L34.4217 33.1931Z" fill="#0091FF"/>
<path d="M34.4522 38.9086C34.4409 38.5857 34.1005 37.0599 34.0239 37.2894C33.9472 37.5189 32.6392 37.6407 32.2774 37.0828C32.2774 37.0828 31.7786 36.4156 31.4343 36.9031C31.09 37.3905 30.4341 38.2122 30.4341 38.2122C30.4341 38.2122 28.1523 38.7674 28.3445 39.3693C28.3834 39.491 28.5454 39.5734 28.7791 39.6274C28.7706 39.6404 28.7645 39.6549 28.7611 39.6701L28.7496 39.7244C28.7424 39.7579 28.7489 39.7928 28.7675 39.8215C28.7861 39.8502 28.8153 39.8703 28.8488 39.8774L28.9031 39.889C28.9366 39.8961 28.9715 39.8897 29.0002 39.8711C29.0289 39.8525 29.049 39.8232 29.0561 39.7898L29.0677 39.7355C29.0718 39.7159 29.0711 39.6956 29.0659 39.6763C29.1298 39.6842 29.1963 39.6908 29.2651 39.6962C29.2427 39.7145 29.2271 39.7399 29.221 39.7681L29.2094 39.8224C29.2023 39.8559 29.2087 39.8908 29.2273 39.9195C29.246 39.9482 29.2752 39.9683 29.3087 39.9755L29.363 39.987C29.3964 39.9942 29.4313 39.9877 29.46 39.9691C29.4887 39.9505 29.5088 39.9213 29.516 39.8878L29.5276 39.8335C29.5323 39.811 29.5309 39.7877 29.5235 39.7659C29.5162 39.7442 29.5031 39.7248 29.4857 39.7098C29.6684 39.7179 29.8605 39.7197 30.0525 39.7173C30.0363 39.7342 30.0251 39.7553 30.0201 39.7782L30.0085 39.8326C30.0014 39.866 30.0078 39.9009 30.0264 39.9296C30.0451 39.9583 30.0743 39.9784 30.1078 39.9856L30.1621 39.9972C30.1955 40.0043 30.2304 39.9978 30.2591 39.9792C30.2878 39.9606 30.308 39.9314 30.3151 39.8979L30.3267 39.8436C30.3318 39.8192 30.3298 39.7938 30.3209 39.7706C30.3119 39.7473 30.2964 39.7271 30.2762 39.7125C30.4207 39.7083 30.5627 39.7021 30.6982 39.6948C30.682 39.7118 30.6709 39.7328 30.6659 39.7557L30.6543 39.81C30.6472 39.8434 30.6537 39.8784 30.6723 39.907C30.6909 39.9357 30.7201 39.9559 30.7536 39.963L30.8079 39.9746C30.8413 39.9817 30.8763 39.9753 30.9049 39.9567C30.9336 39.938 30.9538 39.9088 30.9609 39.8753L30.9725 39.821C30.9781 39.7942 30.9751 39.7662 30.9637 39.7413C30.9523 39.7163 30.9333 39.6957 30.9093 39.6823C31.3865 39.6515 31.7382 39.612 31.7382 39.612C31.7382 39.612 32.1491 39.5546 32.6508 39.4656L32.6408 39.5123C32.6337 39.5458 32.6401 39.5807 32.6588 39.6094C32.6774 39.6381 32.7066 39.6582 32.7401 39.6654L32.7944 39.6769C32.8278 39.6841 32.8627 39.6776 32.8914 39.659C32.9201 39.6404 32.9403 39.6112 32.9474 39.5777L32.959 39.5234C32.963 39.5043 32.9626 39.4845 32.9578 39.4655C32.953 39.4466 32.9439 39.429 32.9313 39.414C33.0323 39.3948 33.1344 39.3747 33.2355 39.3537L33.2263 39.3968C33.2192 39.4302 33.2257 39.4652 33.2443 39.4939C33.2629 39.5226 33.2921 39.5427 33.3256 39.5498L33.3799 39.5614C33.4133 39.5685 33.4483 39.5621 33.477 39.5435C33.5057 39.5249 33.5258 39.4956 33.5329 39.4622L33.5445 39.4078C33.5488 39.3876 33.5482 39.3665 33.5426 39.3465C33.537 39.3266 33.5267 39.3082 33.5125 39.2931C33.6225 39.2678 33.7287 39.2417 33.8273 39.215C33.826 39.219 33.8243 39.2227 33.8234 39.2269L33.8119 39.2812C33.8047 39.3147 33.8112 39.3496 33.8298 39.3783C33.8484 39.407 33.8777 39.4271 33.9111 39.4343L33.9654 39.4458C33.9989 39.453 34.0338 39.4465 34.0625 39.4279C34.0912 39.4093 34.1113 39.3801 34.1184 39.3466L34.13 39.2923C34.1362 39.2632 34.1322 39.2329 34.1186 39.2064C34.105 39.18 34.0827 39.1591 34.0554 39.1472C34.2963 39.0684 34.4549 38.9868 34.4522 38.9086Z" fill="#2F2E41"/>
<path d="M30.5421 5.68657C31.7973 5.68657 32.8147 4.66909 32.8147 3.41396C32.8147 2.15884 31.7973 1.14136 30.5421 1.14136C29.287 1.14136 28.2695 2.15884 28.2695 3.41396C28.2695 4.66909 29.287 5.68657 30.5421 5.68657Z" fill="#FFB8B8"/>
<path d="M32.5801 3.17896C32.5801 3.17896 33.8339 4.74627 34.4608 4.6679L31.718 6.78378C31.718 6.78378 31.4046 5.45156 31.0127 5.29483C30.6209 5.1381 32.5801 3.17896 32.5801 3.17896Z" fill="#FFB8B8"/>
<path d="M37.4771 14.8163C37.4771 14.8163 37.4769 6.16893 36.0263 5.42402C34.5765 4.67955 33.6175 4.25464 33.6175 4.25464C33.5962 4.53838 33.5155 4.81448 33.3808 5.06511C33.2461 5.31574 33.0603 5.53532 32.8354 5.70966C32.3547 6.08078 31.8758 6.38851 31.6083 6.38949L31.5996 6.3528L31.567 6.25963L30.7768 7.4891C30.7768 7.4891 30.0715 7.64583 29.8364 8.11603C29.7092 8.3704 30.309 10.9312 29.954 13.249C29.6527 15.2155 28.3834 16.9906 28.3474 17.2065C28.2866 17.5713 29.8294 16.6154 30.5241 16.1686C30.5344 16.18 30.5417 16.1877 30.5417 16.1877C30.5417 16.1877 30.1499 16.3444 30.9335 16.1093C31.3776 15.9761 31.9975 15.9687 32.4516 15.9873C32.4511 16.1235 32.4543 16.2317 32.4617 16.3053C32.54 17.0889 36.4583 18.186 37.0069 17.9509C37.5554 17.7158 37.4771 14.8163 37.4771 14.8163Z" fill="#2F2E41"/>
<path d="M34.7345 17.7942C34.7345 17.7942 32.3835 19.9101 33.9509 20.3019C35.5182 20.6937 36.1451 18.1077 36.1451 18.1077L34.7345 17.7942Z" fill="#FFB8B8"/>
<path d="M31.9922 23.2799C31.9922 23.2799 33.0893 22.2611 33.7162 22.8097C34.3432 23.3582 34.735 23.7501 34.735 23.7501C34.735 23.7501 32.9326 22.6529 31.9922 23.2799Z" fill="#0091FF"/>
<path d="M32.2773 35.4695C32.2773 35.4695 32.8957 34.8953 33.2491 35.2045C33.6024 35.5137 33.8233 35.7345 33.8233 35.7345C33.8233 35.7345 32.8074 35.1161 32.2773 35.4695Z" fill="#2F2E41"/>
<path d="M25.3496 30.1285C25.3496 30.1285 25.7741 29.3991 26.2021 29.5921C26.6302 29.785 26.9058 29.9321 26.9058 29.9321C26.9058 29.9321 25.7539 29.6361 25.3496 30.1285Z" fill="#2F2E41"/>
<path d="M36.8852 6.49917C36.1084 4.93766 33.7447 5.7893 34.1288 7.49055C34.1345 7.51592 34.1405 7.54153 34.1468 7.56739C34.5516 9.17781 35.2131 10.7125 36.1059 12.1126L35.2439 15.9525L34.3035 17.9117L36.2627 18.3819L38.692 12.5044C38.692 12.5044 38.0219 8.78416 36.8852 6.49917Z" fill="#2F2E41"/>
<path opacity="0.2" d="M35.7536 12.2302L34.2646 17.8726L35.5185 15.2081L35.7536 12.2302Z" fill="black"/>
<path d="M31.9693 0.764955C31.9693 0.764955 30.7131 -0.557585 29.4487 0.2753C28.1842 1.10819 27.5844 1.91725 27.7083 2.48059C27.8323 3.04393 28.1992 3.82751 28.1992 3.82751C28.1992 3.82751 27.9712 2.66043 29.0182 2.57407C30.0652 2.4877 31.5117 1.79482 31.5117 1.79482L32.4902 3.88435C32.4902 3.88435 32.6285 3.40014 33.012 3.53902C33.3955 3.67791 33.0982 0.919862 31.9693 0.764955Z" fill="#2F2E41"/>
<path d="M23.9201 30.6462C23.92 30.8447 23.9035 31.0429 23.8707 31.2387V31.2395C23.7808 31.7661 23.5723 32.2654 23.2611 32.6997C22.95 33.134 22.5442 33.492 22.0744 33.7466C21.6047 34.0011 21.0833 34.1457 20.5495 34.1692C20.0158 34.1928 19.4836 34.0949 18.9933 33.8827H18.9925C18.8474 33.8201 18.7068 33.7476 18.5716 33.6657C18.1529 33.4128 17.7912 33.0757 17.5095 32.6757C17.2278 32.2758 17.0323 31.8216 16.9354 31.3421C16.8899 31.1129 16.8671 30.8799 16.8672 30.6462C16.8672 30.5397 16.8719 30.4339 16.8813 30.3296V30.3289C16.9626 29.429 17.3862 28.5946 18.0648 27.998C18.7433 27.4014 19.625 27.088 20.5279 27.1224C21.4308 27.1569 22.286 27.5367 22.9171 28.1833C23.5481 28.83 23.9069 29.6942 23.9193 30.5977V30.5984C23.9201 30.6149 23.9201 30.6298 23.9201 30.6462Z" fill="#0091FF"/>
<path d="M21.2617 29.4682H19.6823L18.8926 28.1007L19.4282 27.1723L19.4595 27.1639C20.1377 26.9827 20.8538 27.0027 21.5208 27.2215L21.5492 27.2309L22.0515 28.1007L21.2617 29.4682ZM19.7728 29.3115H21.1713L21.8705 28.1007L21.4434 27.3612C20.8237 27.1646 20.1613 27.1459 19.5314 27.307L19.0736 28.1007L19.7728 29.3115Z" fill="white"/>
<path d="M21.1836 32.2896H19.6042L18.8145 30.9218L19.6042 29.554H21.1836L21.9734 30.9218L21.1836 32.2896ZM19.6947 32.1328H21.0932L21.7924 30.9218L21.0932 29.7107H19.6947L18.9954 30.9218L19.6947 32.1328Z" fill="white"/>
<path d="M20.394 34.2509C19.9015 34.2518 19.414 34.1509 18.9624 33.9544L18.8818 33.9194L19.6826 32.5315H21.2621L22.0291 33.8602L21.953 33.8968C21.4667 34.1311 20.9337 34.2522 20.394 34.2509ZM19.1059 33.8447C19.5368 34.018 19.9982 34.1027 20.4626 34.0935C20.927 34.0843 21.3847 33.9815 21.8084 33.7912L21.1716 32.6882H19.7732L19.1059 33.8447Z" fill="white"/>
<path d="M23.8477 30.8788H22.2683L21.4785 29.5113L22.2682 28.1431H22.9874L23.0106 28.1675C23.6343 28.8236 23.9868 29.6913 23.9976 30.5965V30.6192L23.8477 30.8788ZM22.3587 30.7221H23.7572L23.8405 30.5778C23.8254 29.7309 23.4975 28.9194 22.9198 28.2998H22.3588L21.6595 29.5113L22.3587 30.7221Z" fill="white"/>
<path d="M22.2465 33.7402L21.4785 32.411L22.2682 31.0427H23.8476L23.949 31.2175L23.9479 31.2526C23.8623 31.7516 23.6727 32.2271 23.3915 32.6482C23.1102 33.0692 22.7436 33.4264 22.3154 33.6967L22.2465 33.7402ZM21.6595 32.411L22.3001 33.5197C22.6882 33.2619 23.0202 32.9282 23.276 32.5387C23.5318 32.1493 23.7062 31.7121 23.7887 31.2535L23.7573 31.1995H22.3588L21.6595 32.411Z" fill="white"/>
<path d="M18.5993 33.774L18.5309 33.7327C18.103 33.4741 17.7334 33.1294 17.4455 32.7206C17.1576 32.3117 16.9576 31.8476 16.8584 31.3575L16.8525 31.3285L17.0177 31.0427H18.5971L19.3868 32.411L18.5993 33.774ZM17.018 31.3555C17.1131 31.8054 17.2971 32.2319 17.5592 32.6098C17.8212 32.9877 18.1561 33.3096 18.5441 33.5565L19.2058 32.411L18.5066 31.1995H17.1081L17.018 31.3555Z" fill="white"/>
<path d="M18.5971 30.7221H17.0177L16.8027 30.3505V30.3295C16.8801 29.4414 17.2848 28.6138 17.9382 28.0073L17.9607 27.9863H18.5971L19.3868 29.3546L18.5971 30.7221ZM17.1081 30.5654H18.5066L19.2058 29.3546L18.5066 28.1431H18.0226C17.418 28.7137 17.0409 29.4842 16.9614 30.3117L17.1081 30.5654Z" fill="white"/>
</svg>
