<svg width="24" height="24" viewBox="0 0 24 24" fill="none" xmlns="http://www.w3.org/2000/svg">
<path fill-rule="evenodd" clip-rule="evenodd" d="M4.38044 0.536195C6.94263 0.178732 9.48249 0 12 0C14.5189 0 17.0602 0.178935 19.6239 0.536804C21.6155 0.814812 23.1809 2.38041 23.4587 4.37203C23.8196 6.9598 24 9.50245 24 12C24 14.499 23.8193 17.0431 23.458 19.6324C23.1802 21.6236 21.6153 23.1888 19.6242 23.4672C17.0828 23.8224 14.5414 24 12 24C9.46007 24 6.92014 23.8226 4.38021 23.4678C2.38858 23.1895 0.823298 21.6237 0.545839 19.6319C0.181946 17.0197 0 14.4757 0 12C0 9.52564 0.181742 6.98314 0.545225 4.37248C0.822597 2.3803 2.38834 0.814122 4.38044 0.536195Z" fill="#121313"/>
<mask id="mask0_121_50014" style="mask-type:alpha" maskUnits="userSpaceOnUse" x="0" y="0" width="24" height="24">
<path fill-rule="evenodd" clip-rule="evenodd" d="M4.38044 0.536195C6.94263 0.178732 9.48249 0 12 0C14.5189 0 17.0602 0.178935 19.6239 0.536804C21.6155 0.814812 23.1809 2.38041 23.4587 4.37203C23.8196 6.9598 24 9.50245 24 12C24 14.499 23.8193 17.0431 23.458 19.6324C23.1802 21.6236 21.6153 23.1888 19.6242 23.4672C17.0828 23.8224 14.5414 24 12 24C9.46007 24 6.92014 23.8226 4.38021 23.4678C2.38858 23.1895 0.823298 21.6237 0.545839 19.6319C0.181946 17.0197 0 14.4757 0 12C0 9.52564 0.181742 6.98314 0.545225 4.37248C0.822597 2.3803 2.38834 0.814122 4.38044 0.536195Z" fill="white"/>
</mask>
<g mask="url(#mask0_121_50014)">
<path fill-rule="evenodd" clip-rule="evenodd" d="M10.5052 10.3001V9.67605C10.2886 9.64538 10.0702 9.62945 9.85143 9.62842C7.17635 9.62842 5 11.8052 5 14.4803C5 16.1212 5.82012 17.5738 7.07118 18.4522C6.23349 17.5564 5.76777 16.3755 5.76845 15.149C5.76845 12.512 7.88287 10.3617 10.5052 10.3001Z" fill="#00F2EA"/>
<path fill-rule="evenodd" clip-rule="evenodd" d="M10.6196 17.3645C11.8131 17.3645 12.7868 16.415 12.8311 15.2317L12.8351 4.66877H14.7649C14.7237 4.44823 14.7028 4.22436 14.7026 4H12.0671L12.0627 14.5633C12.0187 15.7462 11.0447 16.6953 9.85151 16.6953C9.49328 16.6955 9.14044 16.6082 8.82361 16.441C9.02818 16.7264 9.29778 16.9591 9.61008 17.1196C9.92238 17.2802 10.2684 17.3641 10.6196 17.3645ZM18.3697 8.25418V7.66711C17.6605 7.66778 16.9665 7.46148 16.3729 7.07347C16.8933 7.67274 17.5941 8.08701 18.37 8.25418" fill="#00F2EA"/>
<path fill-rule="evenodd" clip-rule="evenodd" d="M16.3727 7.07311C15.7909 6.40744 15.4705 5.55326 15.4709 4.66919H14.7647C14.8562 5.15784 15.0458 5.62284 15.3222 6.03605C15.5986 6.44925 15.956 6.80206 16.3727 7.07311ZM9.85131 12.2643C9.26391 12.265 8.70078 12.4986 8.28541 12.914C7.87008 13.3293 7.63644 13.8925 7.63574 14.4799C7.63614 14.8839 7.74694 15.2802 7.95621 15.6259C8.16548 15.9715 8.46521 16.2534 8.82304 16.4411C8.55058 16.0654 8.40388 15.6131 8.40384 15.149C8.40441 14.5616 8.63801 13.9983 9.05338 13.5829C9.46874 13.1675 10.0319 12.9338 10.6194 12.9331C10.8477 12.9331 11.0665 12.9708 11.2731 13.0357V10.3448C11.0566 10.3142 10.8381 10.2982 10.6194 10.2972C10.5809 10.2972 10.5432 10.2994 10.5051 10.3001V12.3669C10.2936 12.2996 10.0732 12.265 9.85131 12.2643Z" fill="#FF004F"/>
<path fill-rule="evenodd" clip-rule="evenodd" d="M18.3697 8.25403V10.3025C17.0029 10.3025 15.7368 9.86533 14.7026 9.12326V14.4797C14.7026 17.1548 12.5267 19.3311 9.85157 19.3311C8.8178 19.3311 7.85917 19.005 7.07129 18.4517C7.52427 18.9401 8.07323 19.3298 8.68383 19.5962C9.29443 19.8626 9.95347 20.0001 10.6196 19.9999C13.2947 19.9999 15.4711 17.8236 15.4711 15.1488V9.7924C16.5394 10.5606 17.8223 10.9732 19.1382 10.9716V8.3354C18.8743 8.3354 18.6178 8.3068 18.3697 8.25366" fill="#FF004F"/>
<path fill-rule="evenodd" clip-rule="evenodd" d="M14.7026 14.4798V9.12342C15.7709 9.89168 17.0539 10.3042 18.3697 10.3026V8.25418C17.5939 8.08685 16.8932 7.67245 16.3729 7.07311C15.9562 6.80206 15.5988 6.44925 15.3224 6.03605C15.046 5.62284 14.8564 5.15784 14.7649 4.66919H12.8352L12.8312 15.2322C12.7868 16.4151 11.8132 17.3645 10.6196 17.3645C10.2685 17.3642 9.92243 17.2802 9.61013 17.1196C9.29787 16.9591 9.02827 16.7265 8.82367 16.4411C8.46577 16.2535 8.16593 15.9716 7.9566 15.6259C7.74727 15.2802 7.6364 14.884 7.636 14.4798C7.63667 13.8924 7.8703 13.3293 8.28567 12.9139C8.701 12.4986 9.26417 12.2649 9.85157 12.2642C10.0795 12.2642 10.2983 12.3017 10.5053 12.3669V10.3001C7.88297 10.3616 5.76855 12.512 5.76855 15.149C5.76855 16.4242 6.264 17.5851 7.07129 18.4522C7.88513 19.0251 8.8563 19.3321 9.85157 19.3313C12.5267 19.3313 14.7026 17.1549 14.7026 14.4798Z" fill="white"/>
</g>
</svg>
