<svg width="24" height="24" viewBox="0 0 24 24" fill="none" xmlns="http://www.w3.org/2000/svg">
<path fill-rule="evenodd" clip-rule="evenodd" d="M4.38044 0.536195C6.94263 0.178732 9.48249 0 12 0C14.5189 0 17.0602 0.178935 19.6239 0.536804C21.6155 0.814812 23.1809 2.38041 23.4587 4.37203C23.8196 6.9598 24 9.50245 24 12C24 14.499 23.8193 17.0431 23.458 19.6324C23.1802 21.6236 21.6153 23.1888 19.6242 23.4672C17.0828 23.8224 14.5414 24 12 24C9.46007 24 6.92014 23.8226 4.38021 23.4678C2.38858 23.1895 0.823298 21.6237 0.545839 19.6319C0.181946 17.0197 0 14.4757 0 12C0 9.52564 0.181742 6.98314 0.545225 4.37248C0.822597 2.3803 2.38834 0.814122 4.38044 0.536195Z" fill="#76A9EA"/>
<mask id="mask0_118_49182" style="mask-type:alpha" maskUnits="userSpaceOnUse" x="0" y="0" width="24" height="24">
<path fill-rule="evenodd" clip-rule="evenodd" d="M4.38044 0.536195C6.94263 0.178732 9.48249 0 12 0C14.5189 0 17.0602 0.178935 19.6239 0.536804C21.6155 0.814812 23.1809 2.38041 23.4587 4.37203C23.8196 6.9598 24 9.50245 24 12C24 14.499 23.8193 17.0431 23.458 19.6324C23.1802 21.6236 21.6153 23.1888 19.6242 23.4672C17.0828 23.8224 14.5414 24 12 24C9.46007 24 6.92014 23.8226 4.38021 23.4678C2.38858 23.1895 0.823298 21.6237 0.545839 19.6319C0.181946 17.0197 0 14.4757 0 12C0 9.52564 0.181742 6.98314 0.545225 4.37248C0.822597 2.3803 2.38834 0.814122 4.38044 0.536195Z" fill="white"/>
</mask>
<g mask="url(#mask0_118_49182)">
</g>
<path d="M18.4222 7.97148C18.1418 8.09584 17.8506 8.19396 17.5519 8.26499C17.8811 7.95218 18.1286 7.56092 18.2682 7.12421C18.3081 6.99953 18.1726 6.89172 18.0601 6.95848C17.6445 7.20499 17.1968 7.38993 16.7295 7.5082C16.7023 7.51506 16.6744 7.51854 16.6463 7.51854C16.5612 7.51854 16.4784 7.48694 16.4133 7.42957C15.9161 6.99135 15.2766 6.75 14.6127 6.75C14.3254 6.75 14.0353 6.79478 13.7505 6.88311C12.8681 7.1568 12.1872 7.88469 11.9736 8.78274C11.8935 9.11958 11.8718 9.45673 11.9091 9.78481C11.9134 9.82251 11.8955 9.84882 11.8845 9.86116C11.8653 9.8828 11.8379 9.8952 11.8095 9.8952C11.8063 9.8952 11.8031 9.89505 11.7998 9.89474C9.86825 9.71528 8.12644 8.78471 6.89524 7.27446C6.83245 7.19742 6.71206 7.20687 6.66202 7.29271C6.42092 7.70634 6.2935 8.17943 6.2935 8.66083C6.2935 9.3986 6.58991 10.0939 7.10476 10.6007C6.88825 10.5494 6.6787 10.4685 6.48404 10.3604C6.38986 10.3081 6.27399 10.3753 6.27267 10.4831C6.25919 11.5791 6.90087 12.5543 7.86213 12.9934C7.84277 12.9939 7.82342 12.9941 7.80403 12.9941C7.65165 12.9941 7.49737 12.9794 7.34552 12.9504C7.23947 12.9301 7.15037 13.0307 7.1833 13.1336C7.49531 14.1077 8.33402 14.8257 9.3377 14.9887C8.50471 15.5479 7.53467 15.8428 6.52506 15.8428L6.21031 15.8426C6.11334 15.8426 6.03132 15.9059 6.00661 15.9998C5.98226 16.0923 6.0271 16.1899 6.1098 16.238C7.24747 16.9001 8.54515 17.25 9.86311 17.25C11.0168 17.25 12.0959 17.0211 13.0706 16.5696C13.9641 16.1557 14.7537 15.564 15.4174 14.811C16.0357 14.1095 16.5192 13.2998 16.8544 12.4043C17.174 11.5506 17.3429 10.6398 17.3429 9.77016V9.72873C17.3428 9.5891 17.406 9.45772 17.5162 9.36828C17.9343 9.02882 18.2983 8.62922 18.5982 8.1806C18.6774 8.06214 18.5525 7.91368 18.4222 7.97148Z" fill="white"/>
</svg>
