<svg width="45" height="40" viewBox="0 0 45 40" fill="none" xmlns="http://www.w3.org/2000/svg">
<path d="M42.3 37.1411V37.1849C42.3 37.1965 42.3 37.2085 42.2991 37.22C42.288 37.8184 42.0791 38.3964 41.705 38.8635C41.686 38.888 41.6662 38.9115 41.6459 38.9351C41.6154 38.9711 41.584 39.0057 41.5517 39.0399C41.5489 39.0427 41.5461 39.0459 41.5429 39.0487L41.5415 39.05C41.5378 39.0537 41.5341 39.0579 41.5305 39.0616C41.4737 39.1202 41.4141 39.1764 41.3518 39.2301C41.3393 39.2407 41.3264 39.2518 41.313 39.2624C40.831 39.6627 40.2254 39.8838 39.5989 39.8884C39.5942 39.8889 39.5892 39.8889 39.5845 39.8889H39.5684C39.5638 39.8889 39.5592 39.8889 39.5545 39.8884C39.5384 39.8884 39.5227 39.888 39.5065 39.8875C38.8799 39.8727 38.2777 39.6412 37.8025 39.2324C37.7896 39.2218 37.7767 39.2107 37.7642 39.1992C37.7148 39.1558 37.6673 39.1101 37.6216 39.063C37.6179 39.0593 37.6142 39.0551 37.6105 39.0514L37.6091 39.05C37.6059 39.0473 37.6031 39.044 37.6003 39.0413C37.5615 39.0006 37.5242 38.9586 37.4881 38.9157C37.4683 38.8921 37.4489 38.8681 37.43 38.8437C37.0653 38.38 36.8622 37.8098 36.8515 37.22C36.8506 37.2089 36.8506 37.1974 36.8506 37.1859V37.1429C36.8506 37.1378 36.8506 37.1328 36.851 37.1277C36.8576 36.5367 37.0572 35.9641 37.4194 35.4971C37.4383 35.4726 37.4577 35.4486 37.4775 35.4251C37.514 35.3808 37.5523 35.3378 37.5916 35.2958C37.5943 35.2926 37.5971 35.2898 37.6003 35.2866C37.6003 35.2861 37.6008 35.2857 37.6012 35.2852C37.6049 35.2815 37.6086 35.2773 37.6128 35.2736C37.664 35.2206 37.7174 35.1695 37.773 35.1204C37.7854 35.1088 37.7984 35.0978 37.8113 35.0871C38.2972 34.6733 38.9135 34.4439 39.5518 34.4394C39.5564 34.439 39.5615 34.439 39.5661 34.439H39.5961C40.2196 34.4429 40.8228 34.6613 41.3042 35.0576C41.3172 35.0687 41.3301 35.0793 41.343 35.0904C41.4104 35.1476 41.475 35.2086 41.5364 35.2723C41.5401 35.276 41.5438 35.2801 41.5475 35.2838L41.5484 35.2847C41.5517 35.2875 41.5549 35.2912 41.5577 35.294C41.5918 35.33 41.6246 35.3674 41.6565 35.4052C41.6768 35.4288 41.6962 35.4523 41.7156 35.4768C42.0876 35.9473 42.293 36.5279 42.2996 37.1277C42.3 37.1321 42.3001 37.1366 42.3 37.1411Z" fill="#F96E3B"/>
<path d="M39.5992 34.45H39.5068V39.8976H39.5992V34.45Z" fill="white"/>
<path d="M42.3003 37.1277H36.8291V37.22H42.3003V37.1277Z" fill="white"/>
<path d="M38.3982 37.1277C38.3909 36.7912 38.3037 36.4613 38.1437 36.1653C37.9837 35.8692 37.7556 35.6155 37.4781 35.425C37.4582 35.4486 37.4388 35.4726 37.4199 35.4971C37.6867 35.6788 37.9063 35.9215 38.0604 36.2051C38.2146 36.4887 38.2989 36.805 38.3063 37.1277C38.3068 37.1429 38.3068 37.1581 38.3068 37.1738C38.3068 37.1895 38.3068 37.2048 38.3063 37.22C38.2988 37.5405 38.2156 37.8548 38.0634 38.137C37.9111 38.4192 37.6943 38.6613 37.4305 38.8436C37.4495 38.8681 37.4689 38.8921 37.4887 38.9157C37.7632 38.7247 37.9887 38.4715 38.1467 38.1769C38.3048 37.8822 38.3909 37.5543 38.3982 37.22C38.3991 37.2048 38.3991 37.1891 38.3991 37.1738C38.3991 37.1586 38.3991 37.1429 38.3982 37.1277Z" fill="white"/>
<path d="M40.7998 37.2201C40.7994 37.2048 40.7994 37.1896 40.7994 37.1739C40.7994 37.1582 40.7994 37.143 40.7998 37.1277C40.8074 36.799 40.8948 36.477 41.0543 36.1894C41.2139 35.9018 41.4408 35.6573 41.7158 35.4768C41.6964 35.4524 41.677 35.4288 41.6567 35.4053C41.3713 35.5945 41.136 35.85 40.9707 36.15C40.8055 36.4499 40.7154 36.7854 40.708 37.1277C40.707 37.143 40.707 37.1587 40.707 37.1739C40.707 37.1891 40.707 37.2048 40.708 37.2201C40.7153 37.5602 40.8044 37.8936 40.9677 38.1921C41.1309 38.4906 41.3636 38.7454 41.6461 38.9351C41.6664 38.9116 41.6862 38.888 41.7051 38.8636C41.4332 38.6827 41.2089 38.4388 41.0512 38.1527C40.8936 37.8666 40.8074 37.5466 40.7998 37.2201Z" fill="white"/>
<path d="M44.4811 39.8718H0V39.9752H44.4811V39.8718Z" fill="#2F2E41"/>
<path d="M41.9298 19.1978C41.9385 24.1218 40.0491 28.8597 36.6543 32.4264C36.6313 32.4509 36.6077 32.4753 36.5842 32.4998C34.7926 34.3675 32.6421 35.8538 30.2616 36.8695C27.8812 37.8852 25.3201 38.4093 22.732 38.4103C20.144 38.4112 17.5824 37.8891 15.2012 36.8753C12.82 35.8614 10.6683 34.3768 8.87529 32.5105C8.85174 32.486 8.82818 32.4615 8.80509 32.4371C5.42246 28.8787 3.53108 24.1599 3.51958 19.2503C3.50808 14.3406 5.37733 9.61304 8.74326 6.03882C8.76587 6.01388 8.7894 5.9894 8.81294 5.96493C10.6059 4.08102 12.7629 2.58091 15.153 1.55556C17.5431 0.530217 20.1165 0.000999003 22.7173 1.413e-06C25.318 -0.000996177 27.8919 0.526247 30.2828 1.54976C32.6737 2.57327 34.8318 4.07173 36.6262 5.95426C36.6497 5.97872 36.6733 6.00317 36.6959 6.0281C40.0616 9.58642 41.9348 14.2998 41.9298 19.1978Z" fill="#3F3D56"/>
<path d="M41.9298 19.1589H3.51953V19.2513H41.9298V19.1589Z" fill="white"/>
<path d="M22.771 0H22.6787V38.4103H22.771V0Z" fill="white"/>
<path d="M14.3245 12.8752C13.5012 10.9281 12.3077 9.15934 10.8102 7.66715C10.1908 7.04742 9.5229 6.47818 8.81285 5.96484C8.78931 5.98932 8.76578 6.0138 8.74316 6.03874C12.8452 8.99918 15.5206 13.8197 15.5226 19.254C15.5247 24.6651 12.8757 29.4702 8.805 32.437C8.82809 32.4614 8.85164 32.4859 8.8752 32.5104C9.5654 32.0063 10.2153 31.4493 10.8191 30.8444C13.1231 28.5367 14.6871 25.5948 15.3114 22.3942C15.9358 19.1937 15.5922 15.8796 14.3245 12.8752Z" fill="white"/>
<path d="M29.9269 19.2486C29.9248 13.8144 32.5965 8.99178 36.6963 6.02819C36.6736 6.00326 36.6501 5.97881 36.6265 5.95435C34.529 7.47249 32.8207 9.46559 31.6413 11.7706C30.4619 14.0757 29.8449 16.6272 29.8408 19.2164C29.8367 21.8057 30.4457 24.3591 31.6178 26.6679C32.7899 28.9766 34.4919 30.9751 36.5845 32.4999C36.6081 32.4754 36.6316 32.4509 36.6547 32.4265C32.5821 29.4628 29.929 24.6597 29.9269 19.2486Z" fill="white"/>
<path d="M18.0488 32.5205L17.9209 35.079L19.2641 35.3349L19.6479 32.9043L18.0488 32.5205Z" fill="#FFB8B8"/>
<path d="M24.7012 33.352L25.021 35.4628H26.2363L25.9804 33.2241L24.7012 33.352Z" fill="#FFB8B8"/>
<path d="M18.3047 27.5952L18.0488 30.5375L17.793 33.0321C17.793 33.0321 18.7524 32.6483 19.6479 33.224C19.6479 33.224 20.2236 33.096 20.0956 30.6015L20.6713 27.979L18.3047 27.5952Z" fill="#EFEFEF"/>
<path d="M23.4854 28.5547C23.4854 28.5547 23.8691 30.8573 24.061 31.0492C24.061 31.0492 24.3778 33.1084 24.5317 33.6289C24.5409 33.6661 24.5547 33.7019 24.5727 33.7357C24.7006 33.9276 26.1078 34.3753 26.1718 33.6077C26.2358 32.8402 26.4276 31.5609 25.788 30.6015L25.4042 28.1709L23.4854 28.5547Z" fill="#EFEFEF"/>
<path d="M27.3557 28.2669C27.2917 28.9705 23.7738 28.8425 23.1341 28.8425C22.932 28.8425 22.6723 28.8112 22.5431 28.462C22.3218 27.8652 22.2003 26.9934 22.1593 26.6524C22.1427 26.9684 21.9968 27.7334 21.6323 28.2234C21.4103 28.5227 21.0432 28.4632 20.6396 28.3948C19.9692 28.2809 18.6369 27.8665 18.2729 27.9471C17.6973 28.075 17.0045 28.0878 16.9937 27.9471C16.9887 27.8702 16.9891 27.793 16.995 27.7161C17.0794 26.3934 18.3049 22.8076 18.3049 22.5422C18.3049 22.2224 18.8806 20.8791 18.8806 20.8791L24.7652 20.1755C24.7652 20.1755 27.096 26.4631 27.4165 28.011C27.444 28.1447 27.3608 28.2112 27.3557 28.2669Z" fill="#EFEFEF"/>
<path d="M19.456 35.0151L17.793 34.6953L17.9529 37.3498L19.2641 38.2772C19.2641 38.2772 19.1362 35.7187 19.456 35.0151Z" fill="#EFEFEF"/>
<path d="M26.2363 34.823C26.2363 34.823 25.4048 35.3347 24.7012 34.823L25.2768 37.1896L26.2363 37.0617C26.2363 37.0617 26.6841 35.6545 26.2363 34.823Z" fill="#EFEFEF"/>
<path d="M26.4282 36.8059C26.4282 36.8059 25.085 36.8699 25.085 36.9978V39.1086C25.085 39.3005 25.3408 39.5563 25.2768 39.6842C25.2129 39.8122 25.6606 40.132 26.684 39.9401C27.7074 39.7482 27.3237 39.1086 27.3237 39.1086C27.3237 39.1086 26.3003 37.3176 26.4282 36.8059Z" fill="#2F2E41"/>
<path d="M17.7614 36.8379C17.7614 36.8379 19.2965 36.8699 19.2965 36.9978V39.1086C19.2965 39.3005 19.0407 39.5563 19.1046 39.6842C19.1686 39.8122 18.7208 40.132 17.6974 39.9401C16.674 39.7482 17.0578 39.1086 17.0578 39.1086C17.0578 39.1086 17.8893 37.3496 17.7614 36.8379Z" fill="#2F2E41"/>
<path d="M27.4515 28.2989C27.3875 29.0025 23.6777 29.0665 23.0381 29.0665C22.8359 29.0665 22.6722 28.8113 22.543 28.462C23.2293 28.3258 26.1812 27.7699 27.4163 28.0111C27.4399 28.1052 27.4517 28.2019 27.4515 28.2989Z" fill="#F96E3B"/>
<path d="M21.6323 28.2235C21.4103 28.5228 21.1071 28.7192 20.7035 28.6507C20.0332 28.5369 18.6369 28.2504 18.2729 28.3309C17.6973 28.4589 17.0045 28.0879 16.9937 27.9472C16.9887 27.8703 16.9891 27.7931 16.995 27.7163C18.3414 27.6798 20.7259 27.6958 21.6323 28.2235Z" fill="#F96E3B"/>
<path d="M19.1361 12.4362C19.1361 12.4362 17.9847 12.0524 16.9613 13.2037L16.7694 13.5875C16.7694 13.5875 15.2983 14.0352 14.8505 14.3551C14.8505 14.3551 13.5073 14.0352 11.8443 14.3551L10.1812 13.9713C10.1812 13.9713 6.98308 11.7326 6.66327 13.1398C6.34346 14.5469 9.66953 15.0586 9.66953 15.0586L12.4199 15.8262C12.4199 15.8262 14.5307 16.3379 15.3622 15.9541C15.3622 15.9541 17.7289 15.8262 18.1766 14.9307L19.1361 15.3785V12.4362Z" fill="#FFB8B8"/>
<path d="M23.102 12.1163C23.102 12.1163 25.4686 11.8605 26.3641 13.0758L28.2191 13.5875C28.2191 13.5875 30.2659 13.2037 31.0334 13.3956L32.6965 12.9478C32.6965 12.9478 34.2955 10.3893 35.191 11.0929C36.0865 11.7965 33.0802 14.0352 33.0802 14.0352L29.0506 15.3784C29.0506 15.3784 25.9164 15.6343 25.2768 14.4829L24.5732 16.082L21.8867 15.4424L23.102 12.1163Z" fill="#FFB8B8"/>
<path d="M20.8637 11.7965C21.8175 11.7965 22.5907 11.0233 22.5907 10.0695C22.5907 9.11573 21.8175 8.34253 20.8637 8.34253C19.9099 8.34253 19.1367 9.11573 19.1367 10.0695C19.1367 11.0233 19.9099 11.7965 20.8637 11.7965Z" fill="#FFB8B8"/>
<path d="M19.9678 11.0929V12.5L20.6074 14.7387L22.5263 12.5C22.5263 12.5 22.0146 10.9649 22.0146 10.7091C22.0146 10.4532 19.9678 11.0929 19.9678 11.0929Z" fill="#FFB8B8"/>
<path d="M25.053 20.3356C25.053 20.3356 25.0217 20.5665 24.7306 20.5876C24.148 20.6304 23.1667 20.7296 22.5265 20.9432C21.567 21.263 18.6887 21.263 18.6887 21.263L18.502 15.4693L18.5928 15.0266C18.5288 14.5149 19.0405 12.4681 19.0405 12.4681L19.4141 12.1924L19.7639 12.117L19.872 12.2123C19.872 13.0643 20.7036 13.8753 20.7036 13.8753C21.9188 13.2996 22.4306 12.0204 22.4306 12.0204L22.7907 11.9673L23.1674 12.0095L23.5083 12.0479L23.39 12.1483L23.326 12.2762C23.3222 12.2839 23.3292 12.2686 23.326 12.2762C22.3947 14.252 23.5192 15.1456 24.2215 15.5383C24.5126 15.7021 24.5413 15.8582 24.5413 15.8582C24.5413 15.8582 24.8042 15.7795 24.7972 16.05C24.7761 16.9257 24.6168 18.9028 24.8611 19.4401C25.181 20.1437 25.053 20.3356 25.053 20.3356Z" fill="#EFEFEF"/>
<path d="M19.04 8.90198C19.0814 8.76006 19.1301 8.62037 19.1859 8.48346C19.2588 8.31605 19.1859 7.81382 19.2588 7.81382H19.5505L19.9151 7.479L20.1338 7.64641L20.4255 7.479L20.7901 7.64641L21.1547 7.479L21.738 7.89753L21.8838 7.81382L22.0297 8.06493H22.1026L22.3943 8.48346H22.5401V8.90198H22.6859V9.99013L22.494 10.7411L22.4301 10.3726C22.4301 10.3676 22.4285 10.3627 22.4254 10.3587C22.4224 10.3547 22.4182 10.3517 22.4134 10.3503C22.4085 10.3489 22.4034 10.3491 22.3987 10.3508C22.394 10.3526 22.39 10.3558 22.3872 10.3601L22.2484 10.5761L22.1594 10.2353C22.0312 9.72489 21.7302 9.27463 21.3076 8.96101C20.768 8.56946 19.988 8.38301 19.1859 9.48791L19.04 8.90198Z" fill="#2F2E41"/>
<path d="M19.4137 12.1924C19.2922 12.9312 18.9251 14.9741 18.5016 15.4692L18.4965 15.3144C18.4325 14.8027 18.8803 12.3082 18.8803 12.3082L19.4137 12.1924Z" fill="#F96E3B"/>
<path d="M22.7902 11.9673C22.4692 12.5736 21.5494 14.1388 20.6712 14.0352C19.8237 13.9354 19.7533 12.6702 19.7635 12.117L19.9676 12.0728C19.9676 12.9248 20.7351 13.6514 20.7351 13.6514C21.9504 13.0758 22.3374 11.9167 22.3374 11.9167L22.7902 11.9673Z" fill="#F96E3B"/>
<path d="M24.8933 15.6343C24.8933 15.6343 24.8863 15.8057 24.8792 16.0763C24.7012 16.0667 24.5247 16.0393 24.3522 15.9944C22.3763 15.4731 22.9539 12.7899 23.1675 12.0095L23.5085 12.0479H23.5091C23.5187 12.0569 23.5289 12.0664 23.5392 12.076C22.6079 14.0519 23.6703 15.0126 24.3726 15.4053C24.5375 15.5 24.7121 15.5767 24.8933 15.6343Z" fill="#F96E3B"/>
<path d="M25.2127 20.5594C25.2127 20.5594 25.0214 20.5665 24.7304 20.5876C24.5844 20.0519 24.4678 19.5087 24.3811 18.9603C24.2967 18.3693 24.3236 16.9154 24.3517 15.9944C24.3594 15.7532 24.3664 15.5479 24.3722 15.4053C24.5371 15.4999 24.7116 15.5767 24.8928 15.6343C24.8928 15.6343 24.8858 15.8057 24.8788 16.0762C24.8577 16.9519 24.8404 18.8708 25.0847 19.4081C25.4045 20.1117 25.2127 20.5594 25.2127 20.5594Z" fill="#F96E3B"/>
<path d="M19.2324 16.173C19.2324 16.173 21.2792 15.1937 23.2621 16.173H19.2324Z" fill="#F96E3B"/>
<path d="M18.8008 21.2826C18.8008 21.2826 19.4009 21.2364 20.8783 21.3749C22.3556 21.5134 24.8024 20.5901 24.8024 20.5901" fill="#CACACA"/>
<path d="M10.7229 10.9648V11.0087C10.7229 11.0202 10.7229 11.0322 10.722 11.0437C10.7109 11.6422 10.502 12.2201 10.1278 12.6873C10.1089 12.7117 10.089 12.7353 10.0687 12.7588C10.0382 12.7948 10.0069 12.8295 9.97455 12.8636C9.97177 12.8664 9.969 12.8696 9.96577 12.8724L9.96439 12.8738C9.96069 12.8775 9.957 12.8816 9.95331 12.8853C9.89652 12.9439 9.83697 13.0001 9.77464 13.0538C9.76218 13.0644 9.74925 13.0755 9.73586 13.0861C9.25386 13.4864 8.64822 13.7076 8.02171 13.7121C8.01709 13.7126 8.01202 13.7126 8.0074 13.7126H7.99125C7.98662 13.7126 7.98201 13.7126 7.9774 13.7121C7.96123 13.7121 7.94554 13.7117 7.92938 13.7112C7.30274 13.6964 6.70059 13.4649 6.22539 13.0561C6.21247 13.0455 6.19954 13.0344 6.18707 13.0229C6.13767 12.9795 6.09012 12.9338 6.04441 12.8867C6.04073 12.883 6.03703 12.8788 6.03333 12.8752L6.03195 12.8738C6.02872 12.871 6.02595 12.8678 6.02318 12.865C5.9844 12.8244 5.94701 12.7824 5.911 12.7394C5.89114 12.7159 5.87175 12.6919 5.85283 12.6674C5.48818 12.2037 5.28505 11.6335 5.27436 11.0437C5.27344 11.0327 5.27344 11.0211 5.27344 11.0096V10.9666C5.27344 10.9616 5.27344 10.9565 5.2739 10.9514C5.28044 10.3605 5.48001 9.78783 5.8422 9.32082C5.86113 9.29636 5.88052 9.27235 5.90037 9.2488C5.93685 9.20448 5.97516 9.16155 6.01441 9.11954C6.01718 9.11631 6.01995 9.11354 6.02317 9.11031C6.02317 9.10984 6.02364 9.10938 6.0241 9.10892C6.02779 9.10523 6.03148 9.10107 6.03564 9.09738C6.08689 9.04429 6.14029 8.9932 6.19584 8.94411C6.2083 8.93257 6.22123 8.92149 6.23416 8.91087C6.72008 8.49698 7.33634 8.26764 7.97462 8.26316C7.97924 8.2627 7.98432 8.2627 7.98894 8.2627H8.01894C8.64247 8.26661 9.24565 8.48506 9.72709 8.88132C9.74002 8.8924 9.75295 8.90302 9.76587 8.9141C9.83328 8.97135 9.89791 9.03229 9.95931 9.09599C9.963 9.09969 9.96669 9.10384 9.97039 9.10754L9.97131 9.10846C9.97455 9.11123 9.97777 9.11492 9.98054 9.11769C10.0147 9.1537 10.0475 9.1911 10.0793 9.22895C10.0997 9.2525 10.119 9.27604 10.1384 9.30051C10.5105 9.771 10.7159 10.3516 10.7224 10.9514C10.7228 10.9559 10.723 10.9603 10.7229 10.9648Z" fill="#F96E3B"/>
<path d="M8.02104 8.27368H7.92871V13.7213H8.02104V8.27368Z" fill="white"/>
<path d="M10.7221 10.9514H5.25098V11.0437H10.7221V10.9514Z" fill="white"/>
<path d="M6.82005 10.9514C6.81281 10.6149 6.72558 10.285 6.56559 9.98899C6.4056 9.69293 6.17744 9.4392 5.89997 9.24878C5.88011 9.27232 5.86072 9.29633 5.8418 9.3208C6.10856 9.50252 6.32814 9.74525 6.4823 10.0288C6.63646 10.3124 6.72075 10.6287 6.72818 10.9514C6.72864 10.9666 6.72864 10.9819 6.72864 10.9976C6.72864 11.0132 6.72864 11.0285 6.72818 11.0437C6.7207 11.3643 6.63744 11.6785 6.48523 11.9607C6.33301 12.2429 6.11616 12.4851 5.85241 12.6674C5.87134 12.6919 5.89073 12.7159 5.91058 12.7394C6.18507 12.5484 6.41054 12.2953 6.56859 12.0006C6.72664 11.7059 6.81281 11.378 6.82005 11.0437C6.82098 11.0285 6.82098 11.0128 6.82098 10.9976C6.82098 10.9823 6.82098 10.9666 6.82005 10.9514Z" fill="white"/>
<path d="M9.2217 11.0438C9.22124 11.0286 9.22124 11.0133 9.22124 10.9976C9.22124 10.9819 9.22124 10.9667 9.2217 10.9515C9.22932 10.6227 9.31666 10.3007 9.4762 10.0131C9.63575 9.72556 9.86273 9.48104 10.1376 9.30056C10.1182 9.27609 10.0989 9.25255 10.0785 9.229C9.79317 9.41826 9.55783 9.67376 9.39262 9.9737C9.22742 10.2736 9.13725 10.6091 9.12983 10.9515C9.12891 10.9667 9.12891 10.9824 9.12891 10.9976C9.12891 11.0129 9.12891 11.0286 9.12983 11.0438C9.1372 11.3839 9.22628 11.7173 9.38955 12.0158C9.55282 12.3143 9.78549 12.5692 10.0679 12.7589C10.0882 12.7353 10.1081 12.7118 10.127 12.6873C9.85504 12.5064 9.63073 12.2625 9.47312 11.9764C9.31552 11.6903 9.22927 11.3704 9.2217 11.0438Z" fill="white"/>
</svg>
