<svg width="22" height="18" viewBox="0 0 22 18" fill="none" xmlns="http://www.w3.org/2000/svg">
<path d="M16.5947 7.93189C18.1971 7.93189 19.4969 6.63298 19.4969 5.03064C19.4969 3.42831 18.1971 2.12939 16.5947 2.12939" stroke="#5E94AD" stroke-linecap="round" stroke-linejoin="round"/>
<path d="M17.9292 11.0845C18.4077 11.1175 18.8834 11.1853 19.3519 11.2907C20.0027 11.4181 20.7855 11.6849 21.0642 12.2688C21.242 12.6428 21.242 13.0782 21.0642 13.4531C20.7864 14.0371 20.0027 14.3029 19.3519 14.4367" stroke="#5E94AD" stroke-linecap="round" stroke-linejoin="round"/>
<path d="M5.28986 7.93189C3.68753 7.93189 2.3877 6.63298 2.3877 5.03064C2.3877 3.42831 3.68753 2.12939 5.28986 2.12939" stroke="#5E94AD" stroke-linecap="round" stroke-linejoin="round"/>
<path d="M3.95565 11.0845C3.47715 11.1175 3.0014 11.1853 2.53298 11.2907C1.88215 11.4181 1.09931 11.6849 0.821563 12.2688C0.642813 12.6428 0.642813 13.0782 0.821563 13.4531C1.0984 14.0371 1.88215 14.3029 2.53298 14.4367" stroke="#5E94AD" stroke-linecap="round" stroke-linejoin="round"/>
<path fill-rule="evenodd" clip-rule="evenodd" d="M10.9377 11.7095C14.1845 11.7095 16.9583 12.2008 16.9583 14.1671C16.9583 16.1324 14.2028 16.6421 10.9377 16.6421C7.68991 16.6421 4.91699 16.1507 4.91699 14.1845C4.91699 12.2182 7.67249 11.7095 10.9377 11.7095Z" stroke="#5E94AD" stroke-linecap="round" stroke-linejoin="round"/>
<path fill-rule="evenodd" clip-rule="evenodd" d="M10.9374 8.90492C8.79602 8.90492 7.0791 7.188 7.0791 5.04575C7.0791 2.90442 8.79602 1.1875 10.9374 1.1875C13.0787 1.1875 14.7956 2.90442 14.7956 5.04575C14.7956 7.188 13.0787 8.90492 10.9374 8.90492Z" stroke="#5E94AD" stroke-linecap="round" stroke-linejoin="round"/>
</svg>
