<svg width="20" height="20" viewBox="0 0 20 20" fill="none" xmlns="http://www.w3.org/2000/svg">
<path d="M9.99577 13.8974V11.7832" stroke="#130F26" stroke-width="1.5" stroke-linecap="round" stroke-linejoin="round"/>
<path fill-rule="evenodd" clip-rule="evenodd" d="M15.1582 4.44189C16.5665 4.44189 17.6998 5.58356 17.6998 6.99189V9.85856C15.6498 11.0586 12.9415 11.7836 9.9915 11.7836C7.0415 11.7836 4.3415 11.0586 2.2915 9.85856V6.98356C2.2915 5.57523 3.43317 4.44189 4.8415 4.44189H15.1582Z" stroke="#000229" stroke-linecap="round" stroke-linejoin="round"/>
<path d="M12.9124 4.43817V4.13317C12.9124 3.1165 12.0874 2.2915 11.0708 2.2915H8.92077C7.9041 2.2915 7.0791 3.1165 7.0791 4.13317V4.43817" stroke="#000229" stroke-linecap="round" stroke-linejoin="round"/>
<path d="M2.31201 12.9023L2.46951 14.9932C2.57618 16.4023 3.75035 17.4915 5.16285 17.4915H14.8287C16.2412 17.4915 17.4153 16.4023 17.522 14.9932L17.6795 12.9023" stroke="#000229" stroke-linecap="round" stroke-linejoin="round"/>
</svg>
