<svg width="18" height="18" viewBox="0 0 18 18" fill="none" xmlns="http://www.w3.org/2000/svg">
<path fill-rule="evenodd" clip-rule="evenodd" d="M7.09007 6.2221H1.88174C1.21162 6.2221 0.666504 5.67698 0.666504 5.00674V1.88174C0.666504 1.21162 1.21162 0.666504 1.88174 0.666504H7.09007C7.76031 0.666504 8.30544 1.21162 8.30544 1.88174V5.00674C8.30544 5.67698 7.76031 6.2221 7.09007 6.2221ZM1.88174 1.70817C1.78599 1.70817 1.70817 1.78599 1.70817 1.88174V5.00674C1.70817 5.10262 1.78599 5.18044 1.88174 5.18044H7.09007C7.18595 5.18044 7.26377 5.10262 7.26377 5.00674V1.88174C7.26377 1.78599 7.18595 1.70817 7.09007 1.70817H1.88174ZM7.09007 17.3332H1.88174C1.21162 17.3332 0.666504 16.7881 0.666504 16.1179V8.82627C0.666504 8.15603 1.21162 7.61091 1.88174 7.61091H7.09007C7.76031 7.61091 8.30544 8.15603 8.30544 8.82627V16.1179C8.30544 16.7881 7.76031 17.3332 7.09007 17.3332ZM1.88174 8.65257C1.78599 8.65257 1.70817 8.73039 1.70817 8.82627V16.1179C1.70817 16.2137 1.78599 16.2915 1.88174 16.2915H7.09007C7.18595 16.2915 7.26377 16.2137 7.26377 16.1179V8.82627C7.26377 8.73039 7.18595 8.65257 7.09007 8.65257H1.88174ZM10.9096 17.3331H16.118C16.7881 17.3331 17.3332 16.788 17.3332 16.1179V12.9929C17.3332 12.3227 16.7881 11.7775 16.118 11.7775H10.9096C10.2394 11.7775 9.69425 12.3227 9.69425 12.9929V16.1179C9.69425 16.788 10.2394 17.3331 10.9096 17.3331ZM10.7359 12.9929C10.7359 12.897 10.8137 12.8192 10.9096 12.8192H16.118C16.2137 12.8192 16.2915 12.897 16.2915 12.9929V16.1179C16.2915 16.2137 16.2137 16.2915 16.118 16.2915H10.9096C10.8137 16.2915 10.7359 16.2137 10.7359 16.1179V12.9929ZM16.118 10.3888H10.9096C10.2394 10.3888 9.69425 9.84365 9.69425 9.17341V1.88174C9.69425 1.21162 10.2394 0.666504 10.9096 0.666504H16.118C16.7881 0.666504 17.3332 1.21162 17.3332 1.88174V9.17341C17.3332 9.84365 16.7881 10.3888 16.118 10.3888ZM10.9096 1.70817C10.8137 1.70817 10.7359 1.78599 10.7359 1.88174V9.17341C10.7359 9.26928 10.8137 9.3471 10.9096 9.3471H16.118C16.2137 9.3471 16.2915 9.26928 16.2915 9.17341V1.88174C16.2915 1.78599 16.2137 1.70817 16.118 1.70817H10.9096Z" fill="white"/>
</svg>
